<?xml version="1.0" encoding="UTF-8" standalone="no"?><!DOCTYPE svg PUBLIC "-//W3C//DTD SVG 1.1//EN" "http://www.w3.org/Graphics/SVG/1.1/DTD/svg11.dtd"><svg width="100%" height="100%" viewBox="0 0 606 326" version="1.1" xmlns="http://www.w3.org/2000/svg" xmlns:xlink="http://www.w3.org/1999/xlink" xml:space="preserve" xmlns:serif="http://www.serif.com/" style="fill-rule:evenodd;clip-rule:evenodd;stroke-linejoin:round;stroke-miterlimit:2;"><rect id="Artboard1" x="0" y="0" width="605.859" height="325.88" style="fill:none;"/><clipPath id="_clip1"><rect x="0" y="0" width="605.859" height="325.88"/></clipPath><g clip-path="url(#_clip1)"><path id="path4" d="M174.934,0.146c7.466,0.531 14.898,1.986 22.26,3.328c11.726,2.944 22.895,6.874 32.496,14.444c7.797,5.35 13.225,13.164 16.605,21.911c0.889,2.867 3.45,3.773 5.654,5.524c5.193,3.493 8.982,7.44 14.942,9.496c5.61,1.734 10.811,3.433 16.709,1.821c5.045,-0.741 7.772,-4.034 11.866,-6.552c0.175,4.287 0.244,8.625 0.009,12.912c-0.975,6.734 -3.145,13.199 -6.299,19.227c1.046,1.49 2.083,2.989 3.093,4.505c-0.479,0.261 -0.958,0.514 -1.446,0.766c-3.197,-0.235 -6.325,-0.444 -9.531,0c-0.139,1.412 -0.27,2.823 -0.436,4.226c-0.74,5.375 -1.655,10.341 -0.949,15.847c0.592,2.762 2.256,5.375 3.485,7.911c1.002,2.003 1.96,4.025 2.857,6.072l0.253,0.662c1.69,8.39 4.391,16.379 6.787,24.56c1.028,4.948 1.463,9.923 1.55,14.976c0.07,8.642 0.314,17.389 -0.339,26.014c-1.098,8.46 -3.102,16.658 -5.367,24.873c-1.446,5.036 0.218,9.218 0.235,14.262c0.157,3.86 -0.331,7.641 -0.793,11.457c-0.557,3.476 -1.028,6.969 -1.507,10.463l1.472,-0.566c2.701,-0.819 4.391,-3.076 6.535,-4.888c0.47,2.919 0.522,5.741 -0.14,8.643c-4.034,6.255 -8.294,12.606 -13.19,18.217c-3.128,3.885 -6.795,7.135 -9.383,11.465c-4.095,6.577 -9.557,11.787 -15.098,17.128c-13.678,12.249 -31.451,20.264 -49.276,24.228c-7.379,1.847 -14.985,3.023 -22.608,2.84c-6.691,-0.122 -13.582,0.392 -20.116,-0.653c-5.855,-0.514 -11.587,0.235 -17.424,-0.906c-46.645,-4.321 -90.284,-31.555 -114.678,-71.553c-4.243,-6.769 -8.259,-13.608 -11.056,-21.127c-1.141,-3.371 -3.859,-4.486 -6.316,-6.76c-9.096,-7.928 -13.974,-19.211 -15.499,-31.016c-0.627,-10.184 -0.131,-19.942 4.365,-29.281c1.524,-3.511 3.981,-6.36 5.854,-9.636c1.037,-2.927 0.88,-6.49 1.42,-9.531c3.111,-16.492 8.486,-32.818 16.449,-47.612c5.079,-8.581 10.498,-17.284 16.962,-24.847c2.727,-3.554 5.837,-5.75 7.667,-9.809c10.002,-20.866 27.173,-37.323 47.037,-48.814c10.716,-6.291 23.444,-9.697 35.598,-11.823c12.885,-2.674 26.206,-2.605 39.291,-2.404l0,-0Z" style="fill:#030202;fill-rule:nonzero;"/><path id="path6" d="M161.857,6.323c5.593,-0.358 10.986,0.566 16.579,0.592c10.768,0.244 20.3,3.38 30.336,6.865c3.258,1.168 6.316,2.727 9.226,4.591c-5.523,-0.165 -10.55,-2.334 -16.126,-3.258c-7.649,-1.707 -14.758,-1.037 -22.591,-1.115c-8.276,-0 -15.777,1.969 -23.792,3.676c-9.235,2.1 -17.433,5.986 -26.189,9.375c-7.388,2.936 -14.166,6.978 -20.613,11.587c-5.584,3.668 -10.829,7.649 -15.116,12.824c-4.147,5.079 -8.886,10.219 -11.9,15.987c-2.257,4.234 -4.435,8.538 -6.264,12.981c-1.542,3.755 -2.326,7.675 -3.694,11.483c-3.084,7.875 -3.851,17.11 -4.626,25.474c-0.314,2.901 -0.497,5.776 -0.532,8.695c-3.676,-0.767 -7.187,-1.473 -10.986,-1.211c-3.006,0.209 -6.011,0.479 -9.026,0.531c-0.278,-4.809 0.48,-9.496 0.671,-14.279c0.035,-7.832 1.568,-15.691 3.633,-23.227c2.326,-7.144 4.121,-15.133 7.78,-21.649c3.154,-5.986 6.883,-11.605 10.864,-17.067c5.672,-7.545 12.641,-13.321 19.794,-19.35c6.308,-4.957 12.458,-9.827 19.907,-13.007c9.287,-3.677 18.818,-6.116 28.533,-8.329c8.023,-1.708 16.012,-1.481 24.132,-2.169Z" style="fill:#656565;fill-rule:nonzero;"/><path id="path8" d="M170.116,22.832c8.242,-0.662 16.362,-1.072 24.586,0.009c7.004,0.941 13.809,4.487 20.142,7.649c4.775,3.746 9.401,7.841 13.731,12.101c2.909,2.684 6.237,4.696 8.825,7.754c4.042,4.844 9.043,7.641 14.218,11.117c3.886,2.387 7.519,5.419 11.84,6.7c5.576,1.794 10.925,1.55 16.692,1.498c-0.095,0.627 -0.191,1.263 -0.287,1.899c-6.011,2.213 -12.981,4.086 -19.419,3.302c-5.271,-0.967 -10.307,-3.485 -15.325,-5.34c-5.576,-2.126 -9.278,-5.942 -13.905,-9.54c-3.502,-2.84 -7.266,-4.949 -11.177,-7.162c-4.862,-2.814 -10.847,-4.147 -16.257,-5.601c-4.844,-1.36 -9.383,0.244 -14.262,-0.68c2.117,-2.239 4.661,-2.178 7.484,-2.788c2.796,-0.462 5.454,-1.324 8.059,-2.448c-5.986,-3.877 -13.391,-5.855 -20.404,-6.787c-10.019,-1.298 -19.045,1.037 -28.916,1.952c-6.351,0.584 -11.752,3.354 -18.016,4.591c-5.193,1.08 -9.924,3.258 -14.541,5.802c-0.2,1.133 -0.375,2.266 -0.584,3.398c-3.276,0.462 -6.83,0.784 -9.94,1.934c-0.488,2.039 1.341,4.435 2.073,6.299c-3.363,-0.793 -6.403,-2.317 -9.818,-0.95c-2.928,1.046 -5.323,1.786 -8.451,1.011c2.099,-3.441 5.184,-5.576 7.98,-8.364c6.83,-6.917 15.046,-12.24 24.054,-15.891c8.007,-3.92 16.458,-6.621 25.048,-8.929c5.488,-1.403 10.942,-1.996 16.57,-2.536l0,0Z" style="fill:#413b37;fill-rule:nonzero;"/><path id="path10" d="M383.18,31.448c8.12,0.793 15.917,3.476 22.538,8.277c3.842,3.398 7.719,6.604 10.011,11.178c-5.907,3.284 -11.736,6.708 -17.695,9.879c-2.831,-3.067 -5.271,-5.985 -9.296,-7.518c-3.301,-1.464 -6.455,-1.055 -9.975,-1.133c-7.51,-0.357 -14.802,4.565 -17.921,11.308c-2.404,4.644 -1.856,9.523 -1.734,14.593c0.079,3.886 2.013,7.161 4.156,10.272c4.252,5.654 11.152,8.329 18.148,7.71c7.1,0.279 12.51,-3.589 16.683,-8.956c5.358,2.805 10.577,5.933 15.743,9.069c0.845,0.427 1.786,1.429 1.124,2.379c-7.414,11.561 -21.632,18.522 -35.302,17.581c-9.435,0.453 -18.617,-2.832 -26.066,-8.538c-6.683,-5.846 -12.014,-12.833 -14.079,-21.615c-1.769,-6.151 -1.403,-12.11 -1.159,-18.452c0.654,-5.14 2.274,-10.22 4.731,-14.776c2.448,-4.469 6.194,-8.416 9.975,-11.788c8.425,-6.978 19.263,-10.045 30.118,-9.47Z" style="fill:#020202;fill-rule:nonzero;"/><path id="path12" d="M575.657,32.424c6.778,-0.087 13.582,-0.131 20.36,0.035c-1.855,3.485 -4.547,6.168 -6.926,9.278c-1.882,2.3 -3.607,4.818 -5.706,6.918c-5.916,0.714 -12.232,0.253 -18.217,0.183c1.916,-4.513 4.6,-8.529 6.856,-12.877c0.889,-1.42 1.638,-3.554 3.633,-3.537l0,0Z" style="fill:#050505;fill-rule:nonzero;"/><path id="path14" d="M446.703,55.487c-3.567,0.003 -7.188,0.345 -10.074,1.984c-6.159,3.25 -11.056,8.582 -13.53,15.125c-2.013,4.391 -1.342,8.546 -1.473,13.225c0.087,4.426 -0.365,8.476 1.368,12.658c2.675,6.97 8.034,13.139 15.108,15.857c4.818,2.213 9.644,1.863 14.81,1.567c4.6,-0.61 7.841,-3.127 11.456,-5.74c0.14,1.35 0.27,2.709 0.401,4.059c6.325,0.157 12.677,0.132 19.01,0.018c-0.061,-17.616 -0.044,-35.223 -0.018,-52.83c-0.174,-1.83 0.471,-3.408 -1.289,-4.61c-5.837,-0.174 -11.7,0.026 -17.546,-0.095c-0.218,1.332 -0.426,2.657 -0.635,3.99c-3.424,-1.934 -7.328,-5.176 -11.397,-5.054c-1.931,-0.035 -4.05,-0.156 -6.191,-0.154l0,-0Zm4.943,17.539c1.623,-0.015 3.27,0.158 4.725,0.284c5.044,1.638 8.72,7.205 8.232,12.511c0.357,4.086 -1.612,7.963 -4.879,10.35c-5.157,3.546 -12.92,3.128 -16.84,-2.082c-3.023,-3.685 -3.075,-8.051 -2.325,-12.546c0.818,-3.285 3.632,-6.064 6.507,-7.684c1.359,-0.619 2.957,-0.819 4.58,-0.833Z" style="fill:#020202;fill-rule:nonzero;"/><path id="path16" d="M575.28,55.472c-4.69,-0.018 -9.39,0.464 -13.414,2.566c-9.88,4.94 -17.067,15.646 -16.361,26.911c-0.401,6.56 1.045,12.921 4.861,18.322c4.948,7.502 13.826,12.101 22.678,12.737c6.081,0.035 11.577,0.602 17.362,-1.663c5.001,-1.638 8.896,-4.583 12.276,-8.556c-3.223,-3.032 -6.778,-5.279 -10.455,-7.736c-0.993,-0.592 -2.177,-1.525 -3.362,-1.543c-1.795,0.671 -3.423,1.804 -5.148,2.641c-5.341,3.24 -13.217,1.367 -17.207,-3.251c-1.142,-1.211 -1.099,-2.805 -1.377,-4.373c9.609,-0.079 19.227,0.061 28.845,-0c4.4,-0.148 8.156,0.959 11.937,-1.925c-0.044,-4.687 0.357,-10.036 -1.246,-14.48c-2.866,-9.592 -11.282,-17.381 -21.109,-19.324c-2.657,-0.127 -5.467,-0.316 -8.28,-0.326Zm1.249,15.855c1.477,-0.01 2.953,0.08 4.365,0.285c3.145,1.472 5.705,4.085 6.158,7.657c-7.274,0.113 -14.583,0.236 -21.84,-0.017c0.714,-3.441 3.51,-6.717 6.951,-7.615c1.412,-0.191 2.889,-0.3 4.366,-0.31l0,0Z" style="fill:#020202;fill-rule:nonzero;"/><path id="path18" d="M495.932,57.01c1.821,-0.366 3.816,-0.314 5.672,-0.314c12.903,0.122 25.814,-0.07 38.717,0.096c-0,4.391 0.383,8.895 -0.096,13.26c-2.683,4.277 -6.159,8.067 -9.087,12.197c-3.485,4.818 -7.597,9.304 -10.611,14.444c6.978,0.218 13.957,-0.009 20.935,0.157c0.044,5.82 -0.017,11.64 0.044,17.459c-10.098,-0.017 -20.204,-0.043 -30.301,0.009l-17.015,-0.313c0.201,-4.104 -0.27,-8.355 0.296,-12.415c1.272,-2.588 3.442,-4.94 5.193,-7.24c3.816,-4.905 7.362,-10.036 11.369,-14.793c1.377,-1.655 2.492,-3.485 3.546,-5.358c-6.229,-0.2 -12.467,-0.052 -18.696,-0.096c0.009,-5.689 -0.14,-11.404 0.035,-17.093l-0.001,-0Z" style="fill:#020202;fill-rule:nonzero;"/><path id="path20" d="M182.766,71.393c6.116,0.166 12.415,-0.374 18.331,0.741c6.873,1.141 14.27,2.317 20.691,5.062c4.147,1.768 8.59,3.537 12.336,6.063c3.311,2.187 6.63,4.531 10.359,5.968c4.095,1.577 8.233,2.143 12.563,2.64c-4.583,3.72 -10.925,2.291 -16.44,2.361c0.444,7.928 2.936,15.481 3.058,23.409c-3.162,-0.034 -6.386,0.061 -9.514,-0.357c-2.483,-0.383 -3.258,-2.308 -4.931,-3.885c-1.307,-1.403 -3.005,-2.126 -4.669,-3.041c-3.851,1.647 -4.574,4.896 -7.118,7.658c-4.374,1.891 -10.838,2.004 -15.142,4.818c-0.967,1.62 -0.462,4.086 -0.95,5.942c-1.071,1.472 -2.805,2.012 -4.573,1.995c-3.729,0.261 -7.336,-1.333 -10.525,-3.111c-2.395,-1.254 -2.413,-5.331 -4.922,-6.377c-3.101,-1.315 -6.682,-1.673 -9.975,-2.387c-5.498,-1.167 -11.3,-0.035 -16.745,-0.88c-3.346,-1.76 -5.271,-5.811 -8.686,-7.64c-2.474,-1.168 -5.28,-0.854 -7.24,1.123c-3.136,2.701 -3.093,6.36 -5.053,9.627c-1.045,0.776 -2.448,1.15 -3.668,1.603c-7.266,2.353 -14.166,5.855 -20.613,9.932c-2.413,1.351 -2.578,3.581 -3.519,5.942c-3.633,-0.244 -7.24,-0.741 -10.821,-1.359c0.113,-1.734 0.044,-3.511 0.27,-5.236c2.431,-3.947 6.857,-6.682 9.505,-10.498c0.209,-1.577 -0.462,-2.788 -0.923,-4.252c-2.056,0.732 -5.079,3.912 -7.188,2.291c1.987,-2.561 4.278,-5 6.003,-7.745c1.856,-3.868 -2.683,-10.297 1.324,-13.321c3.964,-3.641 8.669,-6.577 13.304,-9.304c14.165,-8.172 30.178,-13.304 46.305,-15.813c6.525,-0.653 12.545,-2.204 19.166,-1.969Z" style="fill:#fadeb9;fill-rule:nonzero;"/><path id="path26" d="M86.558,75.845c2.823,0.427 4.147,2.361 5.75,4.452c-3.572,-0.313 -6.551,-1.097 -9.775,-2.666c1.237,-0.758 2.44,-2.247 4.025,-1.786Z" style="fill:#303030;fill-rule:nonzero;"/><path id="path28" d="M290.823,87.528c0.488,-0.252 0.967,-0.505 1.446,-0.766c5.985,9.025 11.213,18.739 15.046,28.88c3.772,9.366 5.837,18.958 8.137,28.733c1.176,14.462 1.647,28.907 0.61,43.395c-0.627,8.695 -2.971,16.945 -4.147,25.561c-3.807,13.809 -9.453,26.538 -16.98,38.708c0.662,-2.901 0.61,-5.723 0.139,-8.642c-2.143,1.812 -3.833,4.069 -6.534,4.888c1.629,-3.241 3.137,-6.517 4.984,-9.653c10.541,-20.204 16.465,-42.838 16.23,-65.69c-0.061,-6.665 0.192,-12.937 -0.958,-19.472c-0.636,-5.401 -1.464,-10.585 -3.25,-15.751c-0.557,-2.561 -1.089,-5.123 -1.821,-7.641c-1.507,-6.621 -4.399,-12.624 -6.725,-18.957c-0.898,-2.292 -2.318,-4.104 -3.764,-6.055c-1.498,-5.715 -4.87,-9.967 -8.39,-14.567c-1.341,0.375 -2.666,0.819 -3.99,1.255c0.166,-1.403 0.296,-2.814 0.436,-4.226c3.206,-0.444 6.333,-0.235 9.531,0Z" style="fill:#050a08;fill-rule:nonzero;"/><path id="path30" d="M605.914,89.602c-0.034,1.167 -0.122,2.326 -0.2,3.493c-8.564,-0.095 -17.119,-0.009 -25.675,0.018c-4.661,0.026 -9.2,-0.218 -13.852,0.13c0.976,1.577 1.664,3.102 3.302,4.104c4.103,2.701 9.557,2.047 14.227,1.803c-5.341,3.241 -13.216,1.368 -17.207,-3.249c-1.141,-1.211 -1.097,-2.806 -1.376,-4.374c9.609,-0.078 19.228,0.061 28.846,0c4.399,-0.148 8.154,0.959 11.935,-1.925l0,-0Z" style="fill-rule:nonzero;"/><path id="path32" d="M284.846,90.499c3.52,4.6 6.892,8.852 8.39,14.567c-1.533,2.038 -2.831,4.53 -4.765,6.22c-1.351,0.601 -2.858,0.924 -4.287,1.316c-0.261,0.967 -0.531,1.943 -0.793,2.91c-1.228,-2.536 -2.892,-5.149 -3.485,-7.911c-0.705,-5.506 0.21,-10.472 0.95,-15.847c1.324,-0.436 2.649,-0.88 3.99,-1.255Z" style="fill:#5e2bdf;fill-rule:nonzero;"/><path id="path34" d="M235.457,100.518c0.009,1.577 0.018,3.163 0.044,4.74c-1.246,0.409 -2.448,1.193 -3.79,0.827c-5.123,-1.071 -9.609,-2.91 -14.985,-2.579c-3.615,-0.087 -7.431,1.891 -10.934,1.159c-1.193,-1.368 -0.853,-3.554 -0.984,-5.279c9.644,-3.555 21.153,-2.466 30.649,1.132l0,0Z" style="fill:#160702;fill-rule:nonzero;"/><path id="path36" d="M137.481,99.142c8.755,-1.299 17.659,-0.863 26.249,1.272c0.392,0.662 0.776,1.333 1.168,1.995c-0.462,1.341 -0.915,2.692 -1.351,4.042c-4.434,0.183 -8.59,-1.272 -13.007,-1.246c-4.034,-0.043 -8.181,-0.209 -12.171,0.41c-3.136,0.549 -6.238,2.657 -9.4,2.648c-2.274,-0.418 -2.326,-3.093 -2.605,-4.913c3.659,-1.813 7.013,-3.599 11.117,-4.208Z" style="fill:#170903;fill-rule:nonzero;"/><path id="path38" d="M36.777,105.623c0.375,5.916 -0.096,11.744 0.531,17.642c0.288,2.867 0.366,5.724 0.288,8.599c-1.594,0.898 -3.189,1.786 -4.739,2.762c-3.45,2.091 -5.951,5.079 -9.758,6.647c0.383,-9.583 4.548,-19.506 8.163,-28.314c1.49,-2.997 2.048,-6.072 5.515,-7.336Z" style="fill:#914354;fill-rule:nonzero;"/><path id="path40" d="M293.236,105.066c1.446,1.951 2.866,3.763 3.764,6.055c0.2,4.469 -1.028,8.355 -2.997,12.301c-3.834,-0.2 -5.14,-2.805 -7.423,-5.366c-0.131,1.176 -0.244,2.352 -0.331,3.528c-0.897,-2.047 -1.856,-4.069 -2.858,-6.072c0.262,-0.967 0.532,-1.943 0.793,-2.91c1.429,-0.392 2.936,-0.715 4.287,-1.316c1.934,-1.69 3.232,-4.182 4.765,-6.22Z" style="fill:#4d4ee0;fill-rule:nonzero;"/><path id="path42" d="M145.914,110.372c3.415,1.829 5.34,5.88 8.686,7.64c5.445,0.845 11.247,-0.287 16.745,0.88c3.293,0.714 6.873,1.072 9.975,2.387c2.509,1.046 2.527,5.123 4.922,6.377c3.189,1.778 6.796,3.372 10.525,3.111c1.768,0.017 3.502,-0.523 4.573,-1.995c0.488,-1.856 -0.017,-4.322 0.95,-5.942c4.304,-2.814 10.768,-2.927 15.142,-4.818c2.544,-2.762 3.267,-6.011 7.118,-7.658c1.664,0.915 3.362,1.638 4.669,3.041c1.673,1.577 2.448,3.502 4.931,3.885c3.128,0.418 6.352,0.323 9.514,0.357l0.009,1.403c-2.64,0.261 -5.402,0.584 -8.05,0.288c-2.797,-0.331 -5.463,-1.934 -8.25,-2.056c-3.511,1.028 -6.282,4.53 -8.512,7.265c0.618,0.776 1.237,1.551 1.856,2.327c-0.837,0.087 -1.673,0.165 -2.51,0.235c-2.561,0.191 -7.213,0.07 -8.555,2.718c0.375,6.978 2.466,14.061 3.189,20.961c-0.906,0.218 -1.812,0.445 -2.718,0.663c-0.358,0.958 -0.715,1.907 -1.072,2.866c-1.072,-0.366 -2.143,-0.688 -3.206,-1.046c-0.802,-0.636 -1.603,-1.272 -2.387,-1.925c-0.915,-1.446 -1.838,-2.884 -2.788,-4.313c0.993,-0.862 2.004,-1.716 2.979,-2.613c-0.304,-2.056 -0.575,-4.112 -0.888,-6.168c-5.254,0.348 -10.246,0.392 -15.421,-0.819c0.105,5.532 1.412,10.855 1.116,16.413c-2.466,1.246 -4.94,2.448 -7.536,3.389c-0.471,-4.905 -0.863,-9.853 -1.682,-14.714c-0.47,-4.548 -1.525,-8.93 -2.413,-13.391c-6.003,-2.309 -12.127,-2.274 -18.452,-2.1c0.575,2.361 1.315,4.661 2.16,6.935c-4.016,3.834 -8.181,6.996 -11.709,11.187c4.844,1.881 9.766,3.441 14.41,5.828c0.148,5.802 0.157,11.744 -0.732,17.485c-0.941,4.417 -2.457,10.394 -6.752,12.72c-1.62,0.139 -3.581,0.357 -5.114,-0.287c-2.692,-1.36 -4.931,-3.886 -6.708,-6.282c-4.478,-6.761 -7.815,-14.767 -8.843,-22.843c-0.183,0.157 -0.348,0.322 -0.505,0.496c-1.089,-6.952 -1.934,-13.869 -1.934,-20.917c-0.967,0.139 -1.926,0.305 -2.875,0.548c-4.548,0.933 -8.956,3.302 -12.955,5.62c-1.499,1.01 -3.485,2.073 -3.433,4.147c-0.714,11.892 3.459,22.076 8.817,32.392c-2.143,1.071 -3.86,2.308 -6.386,1.672c-1.098,-0.218 -1.786,-1.481 -2.352,-2.352c-4.452,-8.32 -6.195,-17.146 -7.528,-26.389c-3.415,-0.697 -6.874,-0.967 -10.359,-1.046c-0.052,2.902 -0.095,5.759 0.131,8.66c-0.505,-2.125 -1.533,-4.713 -1.028,-6.874c0.854,-2.674 2.37,-5.175 3.563,-7.71c-1.489,0.035 -2.97,0.079 -4.46,0.131c0.418,-0.967 0.836,-1.917 1.219,-2.901c3.581,0.618 7.188,1.115 10.821,1.359c0.941,-2.361 1.106,-4.591 3.52,-5.942c6.447,-4.077 13.347,-7.579 20.613,-9.932c1.219,-0.453 2.622,-0.827 3.667,-1.603c1.961,-3.267 1.917,-6.926 5.053,-9.627c1.961,-1.977 4.766,-2.291 7.24,-1.123l-0,-0Z" style="fill:#070403;fill-rule:nonzero;"/><path id="path44" d="M297,111.121c2.326,6.334 5.218,12.336 6.725,18.957c-3.136,0.201 -6.063,-0.252 -9.104,-0.941c-1.124,1.9 -2.099,3.912 -3.093,5.881c-1.393,-4.417 -2.526,-8.799 -5.026,-12.772l-0.253,-0.662c0.087,-1.176 0.2,-2.352 0.331,-3.528c2.283,2.561 3.589,5.166 7.423,5.366c1.969,-3.946 3.197,-7.832 2.997,-12.301Z" style="fill:#4b6ed4;fill-rule:nonzero;"/><path id="path46" d="M34.407,112.41c0.854,4.487 1.412,9.061 1.839,13.609c0.034,1.376 0.296,3.188 -0.619,4.338c-2.317,3.041 -6.116,4.618 -9.566,5.977c-0.261,-4.618 0.497,-8.076 2.326,-12.267c1.821,-4.008 2.596,-8.86 6.02,-11.657Z" style="fill:#ea456b;fill-rule:nonzero;"/><path id="path48" d="M286.502,122.246c2.5,3.973 3.633,8.355 5.026,12.772c0.636,2.1 1.203,4.173 1.499,6.343c0.113,1.82 0.139,3.633 0.261,5.445c-2.396,-8.181 -5.096,-16.17 -6.786,-24.56Z" style="fill:#29496e;fill-rule:nonzero;"/><path id="path50" d="M236.477,125.897c4.791,-0.166 10.201,0.801 14.244,3.493c1.359,2.039 1.734,4.844 2.23,7.205c0.741,4.496 1.664,9.174 1.446,13.739c0.122,3.014 -3.554,4.182 -5.236,6.325c-1.045,2.832 -0.148,6.203 0.593,9c-0.61,-0.253 -1.229,-0.488 -1.847,-0.723c-0.218,-1.821 -0.418,-3.633 -0.549,-5.454c0.2,-1.42 -0.017,-3.363 1.281,-4.278c1.315,-1.167 2.849,-2.108 4.303,-3.101c0.236,-6.404 -0.078,-12.685 -1.69,-18.914c-0.366,-1.159 -0.766,-2.684 -1.838,-3.381c-3.197,-2.16 -7.675,-2.805 -11.43,-3.258c-0.035,1.629 -0.009,3.267 0.009,4.896c-2.718,1.882 -5.323,3.868 -7.806,6.038c3.31,1.167 6.656,2.256 9.966,3.432c0.488,6.195 0.236,11.91 -0.914,18.017c-1.089,2.84 -3.093,7.161 -6.735,6.917c-3.65,-0.191 -6.499,-4.147 -8.425,-6.873c-4.878,-9.645 -7.109,-20.082 -7.527,-30.841c-1.934,0.087 -3.903,0.758 -5.732,1.367c0.034,7.441 1.96,14.149 3.537,21.528c-0.924,0.95 -1.847,1.899 -2.771,2.849c2.37,2.404 4.931,4.582 7.432,6.839c1.629,1.725 3.058,3.607 4.591,5.41c-5.428,-3.607 -8.73,-9.444 -14.558,-11.822c0.357,-0.959 0.714,-1.908 1.072,-2.866c0.906,-0.218 1.812,-0.445 2.718,-0.663c-0.723,-6.9 -2.814,-13.983 -3.189,-20.961c1.342,-2.648 5.994,-2.527 8.555,-2.718c-0.575,6.447 0.236,12.685 1.987,18.879c1.507,5.027 2.796,9.74 5.872,14.079c1.559,2.204 3.554,4.67 6.473,4.844c2.326,0.252 4.33,-2.309 5.027,-4.269c1.969,-5.907 1.551,-12.999 1.359,-19.158c-3.459,-1.185 -6.944,-2.23 -10.359,-3.52c2.344,-2.77 5.227,-4.826 8.059,-7.048c-0.078,-1.673 -0.174,-3.337 -0.148,-5.009l-0,-0Z" style="fill:#7a7673;fill-rule:nonzero;"/><path id="path52" d="M237.984,126.55c3.755,0.453 8.233,1.098 11.43,3.258c1.072,0.697 1.472,2.222 1.838,3.381c1.612,6.229 1.926,12.51 1.69,18.914c-1.454,0.993 -2.988,1.934 -4.303,3.101c-1.298,0.915 -1.081,2.858 -1.281,4.278c-2.919,-0.192 -5.436,0.671 -8.094,1.76c-0.017,-0.767 -0.026,-1.534 -0.026,-2.309c1.15,-6.107 1.403,-11.822 0.915,-18.017c-3.311,-1.176 -6.656,-2.265 -9.967,-3.432c2.483,-2.17 5.088,-4.156 7.806,-6.038c-0.017,-1.629 -0.043,-3.267 -0.009,-4.896l0.001,-0Z" style="fill:#fcfcfc;fill-rule:nonzero;"/><path id="path54" d="M158.372,127.02c6.325,-0.174 12.45,-0.209 18.453,2.1c0.888,4.461 1.942,8.843 2.413,13.391c-0.018,4.948 -0.096,9.853 0.636,14.767c1.228,0.488 2.448,0.975 3.676,1.455c-0.461,1.611 -0.514,3.301 -1.881,4.434c-1.734,1.368 -4.505,1.533 -6.596,2.117c-4.478,0.906 -8.442,4.304 -12.362,6.656c-0.087,-1.159 -0.157,-2.317 -0.209,-3.485c0.888,-5.741 0.88,-11.683 0.732,-17.485c-4.644,-2.387 -9.566,-3.947 -14.41,-5.828c3.528,-4.191 7.693,-7.353 11.709,-11.187c-0.845,-2.274 -1.586,-4.574 -2.161,-6.935Z" style="fill:#fcfbfb;fill-rule:nonzero;"/><path id="path56" d="M216.552,128.136c0.418,10.759 2.648,21.196 7.527,30.841c-0.104,0.557 -0.218,1.123 -0.322,1.681c-1.586,-0 -3.163,0.017 -4.74,0.061c-2.5,-2.256 -5.061,-4.435 -7.431,-6.839c0.923,-0.95 1.847,-1.899 2.77,-2.849c-1.576,-7.379 -3.502,-14.087 -3.537,-21.528c1.83,-0.609 3.799,-1.28 5.733,-1.367l-0,-0Z" style="fill:#fdfaf9;fill-rule:nonzero;"/><path id="path58" d="M294.621,129.137c3.041,0.689 5.968,1.142 9.104,0.941c0.732,2.518 1.264,5.08 1.821,7.641c-4.129,1.376 -8.381,2.291 -12.519,3.642c-0.296,-2.17 -0.863,-4.243 -1.499,-6.343c0.994,-1.969 1.969,-3.981 3.093,-5.881Z" style="fill:#3391ca;fill-rule:nonzero;"/><path id="path60" d="M132.645,131.342c0,7.048 0.845,13.965 1.934,20.917c0.157,-0.174 0.323,-0.339 0.506,-0.496c1.028,8.076 4.365,16.082 8.843,22.843c-0.183,0.993 -0.366,1.995 -0.549,2.988c-7.162,-1.167 -13.983,0.488 -21.127,0.262c0.069,-0.784 0.13,-1.568 0.183,-2.353c0.374,-3.981 -2.257,-7.257 -3.686,-10.898c-2.979,-7.153 -4.774,-15.264 -4.138,-23.018c0.087,-1.969 2.074,-2.84 3.511,-3.772c3.834,-2.074 7.859,-3.755 11.648,-5.924c0.95,-0.244 1.908,-0.41 2.875,-0.549Z" style="fill:#fefdfc;fill-rule:nonzero;"/><path id="path62" d="M129.77,131.89c-3.789,2.17 -7.814,3.851 -11.648,5.925c-1.437,0.932 -3.424,1.803 -3.511,3.772c-0.636,7.754 1.159,15.865 4.138,23.018c1.429,3.641 4.06,6.917 3.686,10.898c-2.37,0.497 -5.837,1.856 -8.094,0.689c-2.317,-2.492 -3.485,-6.212 -4.757,-9.322c-2.474,-6.247 -3.371,-12.729 -4.399,-19.315c-2.71,-0.218 -5.428,-0.296 -8.146,-0.27c-0.253,5.558 -0.235,10.829 2.004,16.03c2.657,6.299 4.234,12.903 5.392,19.62c1.272,10.132 0.541,20.186 -1.646,30.135c-0.845,5.105 -2.361,8.887 -5.219,13.182c8.05,-19.707 8.695,-42.96 0.584,-62.745c-1.072,-2.927 -1.716,-5.898 -2.448,-8.913c-0.227,-2.901 -0.183,-5.758 -0.131,-8.66c3.485,0.079 6.944,0.349 10.359,1.046c1.333,9.243 3.075,18.069 7.527,26.389c0.567,0.871 1.255,2.134 2.352,2.352c2.527,0.636 4.243,-0.601 6.386,-1.672c-5.357,-10.316 -9.531,-20.5 -8.816,-32.392c-0.052,-2.074 1.934,-3.137 3.432,-4.147c3.999,-2.318 8.408,-4.687 12.955,-5.62Z" style="fill:#7d7267;fill-rule:nonzero;"/><path id="path64" d="M48.643,133.589c8.198,0.14 16.849,3.912 21.911,10.498c-4.94,-3.171 -9.993,-7.64 -15.699,-8.938c-4.348,-1.011 -8.948,-1.42 -13.138,0.409c-4.591,2.083 -8.852,4.139 -11.77,8.442c3.458,0.166 6.917,0.218 10.385,0.314c-0.061,1.342 -0.131,2.683 -0.192,4.034c1.411,-0.288 2.823,-0.567 4.234,-0.863c4.199,2.466 8.085,4.966 11.23,8.765c-0.653,0.357 -1.298,0.714 -1.952,1.071c-3.284,-3.127 -6.821,-5.941 -10.829,-8.085c0.715,0.976 1.429,1.952 2.187,2.884c-5.689,-3.668 -12.458,-3.729 -17.86,-7.78c3.206,-3.084 6.621,-6.203 10.411,-8.546c3.18,-2.004 7.423,-2.274 11.082,-2.205Z" style="fill:#343635;fill-rule:nonzero;"/><path id="path66" d="M54.855,135.149c5.706,1.298 10.759,5.767 15.699,8.938c2.736,2.867 5.314,5.838 7.388,9.227c2.823,4.591 6.212,9.365 7.867,14.488c1.464,4.417 2.439,9.017 3.38,13.565c1.255,5.933 0.828,12.493 0.837,18.583c-0.027,6.473 -1.299,12.275 -4.017,18.138c-2.883,6.465 -6.351,13.173 -11.874,17.79c-2.727,2.083 -5.837,3.895 -9.061,5.08c-3.729,0.357 -7.545,0.444 -11.265,0.017c-3.519,-0.427 -6.325,-2.012 -9.391,-3.598c-2.388,-1.499 -4.496,-3.328 -6.535,-5.262c4.984,-3.398 9.993,-5.097 14.044,-9.671c7.658,-8.886 11.265,-20.447 10.908,-32.113c-0.488,-8.198 -1.647,-16.152 -5.489,-23.54c-2.814,-5.95 -7.231,-10.611 -12.336,-14.671c-0.758,-0.932 -1.472,-1.908 -2.187,-2.884c4.008,2.144 7.545,4.958 10.829,8.085c13.269,16.475 15.221,41.296 5.106,59.8c-3.302,6.02 -8.407,9.784 -13.94,13.574c5.724,-0.009 11.736,-0.61 17.137,-2.623c5.933,-2.552 11.674,-6.447 14.802,-12.275c1.751,-3.467 4.086,-6.944 4.774,-10.733c1.882,-9.009 1.359,-18.287 -0.583,-27.226c-1.508,-6.943 -4.757,-13.172 -8.765,-18.983c-3.694,-4.357 -8.59,-7.841 -13.469,-10.751c-5.471,-3.25 -11.047,-3.442 -17.171,-4.287c1.228,0.593 2.456,1.168 3.72,1.691c-0.88,0.156 -1.76,0.313 -2.64,0.487c0.584,0.506 1.159,1.002 1.751,1.49c-1.411,0.296 -2.823,0.575 -4.234,0.863c0.061,-1.351 0.131,-2.692 0.192,-4.034c-3.468,-0.096 -6.927,-0.148 -10.385,-0.314c2.918,-4.303 7.179,-6.36 11.77,-8.442c4.19,-1.829 8.79,-1.42 13.138,-0.409l-0,-0Z" style="fill:#666;fill-rule:nonzero;"/><path id="path68" d="M187.34,137.423c5.175,1.211 10.167,1.167 15.421,0.819c0.313,2.056 0.583,4.112 0.888,6.168c-0.976,0.897 -1.986,1.751 -2.979,2.613c0.949,1.429 1.873,2.867 2.788,4.313c1.141,5.968 2.291,12.049 2.5,18.121c0.017,2.143 0.078,4.557 -0.662,6.595c-5.158,3.276 -11.77,3.842 -17.259,6.674c-1.342,-3.712 0.27,-6.543 1.115,-10.106c1.847,-7.057 4.731,-13.844 6.552,-20.892c-1.359,0.802 -2.518,1.69 -3.581,2.866c0.131,-4.042 0.662,-7.823 -0.653,-11.77c-0.767,0.81 -1.638,1.621 -2.257,2.553c-0.427,2.796 -0.392,5.654 -0.758,8.459c0.296,-5.558 -1.01,-10.881 -1.115,-16.413Z" style="fill:#fadfbc;fill-rule:nonzero;"/><path id="path70" d="M305.546,137.719c1.786,5.166 2.614,10.35 3.25,15.751l-0.906,0.192c-1.708,-2.535 -3.197,-5.184 -5.088,-7.597c-2.117,1.455 -5.105,3.441 -5.524,6.168c-0.566,3.659 -0.435,7.467 -0.252,11.161c-0.523,-1.194 -1.098,-2.37 -1.682,-3.538c-0.174,0.636 -0.339,1.281 -0.505,1.926c-0.087,-5.053 -0.523,-10.028 -1.551,-14.976c-0.122,-1.812 -0.148,-3.625 -0.261,-5.445c4.138,-1.351 8.39,-2.266 12.519,-3.642Z" style="fill:#2db1b5;fill-rule:nonzero;"/><path id="path72" d="M338.295,140.96c5.942,0.2 11.901,0.113 17.843,0.122c32.304,-0 64.609,-0.026 96.913,0.035c0.305,12.528 0.166,25.099 0.079,37.636c-12.676,0.009 -25.353,-0.061 -38.029,0.026c-0.087,2.413 -0.122,4.818 -0.122,7.231c0.009,36.164 -0.104,72.346 0.053,108.51c-13.069,-0.026 -26.137,0.087 -39.205,-0.044c-0.104,-38.586 0.026,-77.189 -0.078,-115.775c-12.494,0.139 -24.987,-0.105 -37.48,0.122c-0.157,-12.572 -0.157,-25.283 0.026,-37.863l0,-0Z" style="fill:#010101;fill-rule:nonzero;"/><path id="path74" d="M460.77,141.169c14.192,-0.087 28.393,-0.078 42.585,0.009c1.847,7.362 4.199,14.593 6.125,21.937c7.484,27.356 15.438,54.425 23.043,81.755l1.464,-0c0.897,-4.182 2.143,-8.303 3.267,-12.433c8.695,-30.553 17.372,-60.749 25.997,-91.364c14.105,0.148 28.271,-0.191 42.35,0.201c0.218,2.648 -1.412,5.48 -2.091,8.041c-5.942,19.184 -12.572,38.133 -18.461,57.343c-6.255,19.559 -12.955,38.987 -18.94,58.633c-3.137,9.74 -6.081,19.515 -9.531,29.159c-15.499,0.131 -31.007,0.088 -46.514,0.061c-1.874,-4.539 -3.206,-9.234 -4.74,-13.887c-4.826,-15.185 -9.635,-30.405 -14.68,-45.512c-8.363,-26.093 -16.823,-52.09 -25.239,-78.165c-1.629,-5.201 -3.737,-10.402 -4.635,-15.778l0,-0Z" style="fill:#010101;fill-rule:nonzero;"/><path id="path76" d="M179.238,142.511c0.819,4.861 1.211,9.809 1.681,14.714c2.596,-0.941 5.071,-2.143 7.536,-3.389c0.366,-2.805 0.331,-5.663 0.758,-8.459c0.619,-0.932 1.49,-1.743 2.257,-2.553c1.315,3.947 0.784,7.728 0.653,11.77c-2.701,7.005 -6.508,13.704 -10.202,20.221c-1.795,3.119 -2.37,6.081 -2.204,9.679c-0.444,0.035 -0.889,0.07 -1.324,0.105c-0.645,-4.077 -0.192,-8.111 -0.392,-12.188c-0.053,-1.795 -1.9,-2.048 -3.25,-2.509c-2.222,2.787 -4.992,2.814 -8.024,4.077c-3.345,2.901 -5.114,7.065 -9.592,9.104c-3.162,1.385 -6.926,-0.462 -10.036,-1.316c-7.179,-1.968 -15.525,-1.855 -22.878,-2.282c-5.228,-0.296 -10.037,-1.952 -14.837,-3.921c-1.089,1.995 -2.213,3.747 -2.326,6.099c-0.34,5.218 0.296,10.472 0.017,15.708c-0.2,5.759 -1.629,11.056 -2.204,16.779c-0.688,-0.383 -1.376,-0.74 -2.082,-1.08c2.187,-9.949 2.918,-20.003 1.646,-30.135c-1.158,-6.717 -2.735,-13.321 -5.392,-19.62c-2.239,-5.201 -2.257,-10.472 -2.004,-16.03c2.718,-0.026 5.436,0.052 8.146,0.27c1.028,6.586 1.925,13.068 4.399,19.315c1.272,3.11 2.44,6.83 4.757,9.322c2.257,1.167 5.724,-0.192 8.094,-0.689c-0.053,0.785 -0.114,1.569 -0.183,2.353c7.144,0.226 13.965,-1.429 21.127,-0.262c0.183,-0.993 0.366,-1.995 0.549,-2.988c1.777,2.396 4.016,4.922 6.708,6.282c1.533,0.644 3.493,0.426 5.114,0.287c4.295,-2.326 5.811,-8.303 6.752,-12.72c0.052,1.168 0.122,2.326 0.209,3.485c3.92,-2.352 7.884,-5.75 12.362,-6.656c2.091,-0.584 4.862,-0.749 6.595,-2.117c1.368,-1.133 1.421,-2.823 1.882,-4.434c-1.228,-0.48 -2.448,-0.967 -3.676,-1.455c-0.732,-4.914 -0.654,-9.819 -0.636,-14.767l-0,-0Z" style="fill:#f4e1c7;fill-rule:nonzero;"/><path id="path78" d="M41.543,143.817c6.124,0.845 11.7,1.037 17.171,4.287c4.879,2.91 9.775,6.394 13.469,10.751c4.008,5.811 7.257,12.04 8.765,18.983c1.942,8.939 2.465,18.217 0.583,27.226c-0.688,3.789 -3.023,7.266 -4.774,10.733c-3.128,5.828 -8.869,9.723 -14.802,12.275c-5.401,2.013 -11.413,2.614 -17.137,2.623c5.533,-3.79 10.638,-7.554 13.94,-13.574c10.115,-18.504 8.163,-43.325 -5.106,-59.8c0.654,-0.357 1.299,-0.714 1.952,-1.071c4.373,4.6 7.536,10.019 9.191,16.161c1.473,5.262 1.743,10.498 2.466,15.873c0.81,0.035 1.62,0.07 2.43,0.105c0.567,-6.987 -3.354,-13.382 -2.822,-20.587c1.829,0.209 3.397,-0.244 4.713,1.342c3.581,3.85 4.548,10.393 6.342,15.281c0.828,0.244 1.656,0.488 2.492,0.74c-1.272,-8.581 -4.591,-16.945 -9.514,-24.08c-6.185,-8.46 -15.498,-13.487 -25.639,-15.577c-1.264,-0.523 -2.492,-1.098 -3.72,-1.691Z" style="fill:#030303;fill-rule:nonzero;"/><path id="path80" d="M315.452,144.375c1.385,4.818 1.594,9.618 1.986,14.575c1.734,16.423 0.148,33.324 -3.746,49.337c-0.47,1.734 -1.159,3.372 -1.777,5.045c1.176,-8.617 3.52,-16.867 4.147,-25.562c1.037,-14.488 0.566,-28.933 -0.61,-43.395Z" style="fill-rule:nonzero;"/><path id="path82" d="M42.623,145.995c0.88,-0.174 1.76,-0.331 2.64,-0.487c10.141,2.09 19.454,7.117 25.639,15.577c4.923,7.135 8.242,15.499 9.514,24.08c-0.836,-0.252 -1.664,-0.496 -2.492,-0.74c-1.794,-4.888 -2.761,-11.431 -6.342,-15.281c-1.316,-1.586 -2.884,-1.133 -4.713,-1.342c-0.532,7.205 3.389,13.6 2.822,20.587c-0.81,-0.035 -1.62,-0.07 -2.43,-0.105c-0.723,-5.375 -0.993,-10.611 -2.466,-15.873c-1.655,-6.142 -4.818,-11.561 -9.191,-16.161c-3.145,-3.799 -7.031,-6.299 -11.23,-8.765c-0.592,-0.488 -1.167,-0.984 -1.751,-1.49Z" style="fill:#a7a7a7;fill-rule:nonzero;"/><path id="path84" d="M302.802,146.065c1.89,2.413 3.38,5.062 5.088,7.597c-0.296,5.088 -0.148,10.15 -0.88,15.22c-0.915,-1.132 -1.803,-2.361 -2.875,-3.345c-2.518,-1.124 -4.356,-0 -6.552,1.158c-0.156,-1.106 -0.357,-2.204 -0.557,-3.301c-0.183,-3.694 -0.314,-7.502 0.252,-11.161c0.419,-2.727 3.407,-4.713 5.524,-6.168Z" style="fill:#12d9ad;fill-rule:nonzero;"/><path id="path86" d="M203.458,151.336c0.784,0.653 1.585,1.289 2.387,1.925c4.277,5.594 8.529,11.204 12.798,16.806c1.655,2.378 3.729,5.306 3.973,8.25c0.156,1.969 -2.449,3.067 -3.93,3.694c-7.161,2.64 -15.298,3.093 -22.869,3.572c-3.372,0.262 -5.297,-0.723 -7.78,-2.857c5.489,-2.832 12.101,-3.398 17.259,-6.674c0.74,-2.038 0.679,-4.452 0.662,-6.595c-0.209,-6.072 -1.359,-12.153 -2.5,-18.121Z" style="fill:#ad896a;fill-rule:nonzero;"/><path id="path88" d="M195.704,151.728c-1.821,7.048 -4.705,13.835 -6.552,20.892c-0.845,3.563 -2.457,6.394 -1.115,10.106c2.483,2.134 4.408,3.119 7.78,2.857c7.571,-0.479 15.708,-0.932 22.869,-3.572c1.481,-0.627 4.086,-1.725 3.93,-3.694c-0.244,-2.944 -2.318,-5.872 -3.973,-8.25c-4.269,-5.602 -8.521,-11.212 -12.798,-16.806c1.063,0.358 2.134,0.68 3.206,1.046c5.828,2.378 9.13,8.215 14.558,11.822c3.127,3.232 7.309,7.135 6.813,12.04c0.662,5.254 -4.644,8.434 -8.808,10.159c-9.192,3.336 -19.812,4.861 -29.561,4.086c-3.058,-0.619 -6.264,-1.438 -8.773,-3.398c-1.394,-1.289 -2.422,-3.014 -3.563,-4.522c-0.166,-3.598 0.409,-6.56 2.204,-9.679c3.694,-6.517 7.501,-13.216 10.202,-20.221c1.063,-1.176 2.222,-2.064 3.581,-2.866Z" style="fill:#110401;fill-rule:nonzero;"/><path id="path90" d="M307.89,153.662l0.906,-0.192c1.15,6.535 0.897,12.807 0.958,19.472c0.235,22.852 -5.689,45.486 -16.23,65.69c-1.647,-0.088 -3.302,-0.192 -4.949,-0.244c0.462,-3.816 0.95,-7.597 0.793,-11.457c-0.018,-5.044 -1.682,-9.226 -0.235,-14.262c2.265,-8.215 4.269,-16.413 5.366,-24.873c0.654,-8.625 0.41,-17.372 0.34,-26.014c0.166,-0.645 0.331,-1.29 0.505,-1.926c0.584,1.168 1.159,2.344 1.682,3.538c0.2,1.097 0.401,2.195 0.557,3.301c0.976,8.843 -0.496,18.043 -1.315,26.869c-0.566,4.513 -1.42,8.947 -2.866,13.268c-2.963,8.73 -2.083,18.113 -1.499,27.139c2.893,-5.907 6.264,-11.422 8.311,-17.712c2.17,-5.628 2.327,-11.422 3.834,-17.181c1.045,-3.807 2.187,-7.509 2.579,-11.465c0.749,-6.299 -0.279,-12.432 0.383,-18.731c0.732,-5.07 0.584,-10.132 0.88,-15.22Z" style="fill:#41db8b;fill-rule:nonzero;"/><path id="path92" d="M31.219,154.194c5.697,0.339 10.141,3.406 14.322,7.004c5.933,4.922 9.471,12.258 10.83,19.742c0.784,4.382 1.742,8.424 1.367,12.911c-0.487,5.89 -1.646,11.648 -4.347,16.945c-2.579,5.332 -5.976,11.431 -11.657,13.905c4.095,-7.249 7.231,-14.619 8.155,-22.965c0.627,-9.941 0.157,-19.577 -5.175,-28.28c-2.962,-5.105 -8.181,-8.163 -13.652,-9.923c-5.419,-1.577 -9.758,0.392 -15.246,0.253c2.439,-5.933 8.851,-10.455 15.403,-9.592Z" style="fill:#a4a4a4;fill-rule:nonzero;"/><path id="path94" d="M224.079,158.977c1.926,2.726 4.774,6.682 8.425,6.873c3.641,0.244 5.645,-4.077 6.734,-6.917c0,0.775 0.009,1.542 0.026,2.309c2.658,-1.089 5.175,-1.952 8.094,-1.76c0.131,1.821 0.331,3.633 0.549,5.454c0.618,0.235 1.237,0.47 1.847,0.723c4.321,1.934 7.754,6.177 10.559,9.871c8.059,11.36 13.164,24.568 15.203,38.324c0.601,7.815 0.392,15.726 0.27,23.567c0.009,6.873 -2.152,13.146 -4.583,19.48c-0.314,-4.722 1.246,-9.13 0.619,-13.844c0.487,0.296 0.975,0.593 1.455,0.88c-1.281,-13.251 -0.035,-24.943 -2.248,-37.932c-1.298,-3.729 -2.814,-7.249 -3.424,-11.195c-2.335,-1.621 -4.565,-3.337 -6.735,-5.175c-3.815,3.301 -7.318,6.917 -10.794,10.567c1.316,2.605 4.234,5.776 3.563,8.808c-0.731,5.785 -0.618,11.509 -0.592,17.32c-0.061,1.882 0.07,3.729 -1.124,5.306c-2.248,2.936 -5.471,5.009 -7.797,7.919c-2.91,3.45 -4.278,7.309 -6.012,11.404c-1.097,0.436 -2.195,0.871 -3.293,1.324c-0.836,1.307 -1.324,3.738 -3.197,3.668c-2.3,-0.104 -4.67,-1.376 -6.952,-1.176c-1.577,0.349 -3.128,1.072 -4.627,1.682c1.063,0.322 2.205,0.54 3.215,1.01c1.089,0.871 0.976,2.797 0.95,4.06c-0.915,-0.819 -1.821,-1.638 -2.779,-2.413c-2.597,-2.3 -4.783,-3.433 -8.32,-3.685c5.941,-1.333 11.343,-3.555 16.352,-7.049c8.163,-4.617 14.401,-12.981 17.782,-21.623c2.256,-5.55 3.667,-11.169 2.77,-17.198c-0.714,-3.101 -2.535,-5.872 -5.393,-7.362c-3.101,-0.435 -6.508,-0.505 -9.6,0c-2.466,0.793 -4.714,2.562 -7.005,3.781c-5.349,2.858 -11.282,5.01 -17.32,5.742c-7.257,0.479 -14.479,0.139 -21.414,-2.213c1.699,-1.638 3.476,-3.015 5.732,-3.816c3.607,0.636 6.526,0.645 10.115,-0.096c1.708,0.767 3.546,1.83 5.419,2.021c1.403,-0.174 2.692,-1.42 3.947,-2.064c3.528,-1.351 7.126,-1.621 10.541,-3.407c3.381,-1.725 5.881,-4.792 9.314,-6.116c2.674,-1.045 5.523,-1.699 8.285,-2.491c-0.009,-0.95 -0.017,-1.891 -0.026,-2.841c-2.727,-0.453 -5.741,-1.106 -8.477,-0.522c-2.579,0.575 -5.097,1.89 -7.553,2.892c-4.078,1.708 -8.66,2.701 -12.955,3.842c-0.34,-0.984 -0.724,-1.951 -1.107,-2.918c-6.821,-0.026 -13.599,0.418 -20.421,0.078c-0.017,-0.549 -0.026,-1.106 -0.044,-1.655c9.749,0.775 20.369,-0.75 29.561,-4.086c4.164,-1.725 9.47,-4.905 8.808,-10.159c0.496,-4.905 -3.686,-8.808 -6.813,-12.04c-1.534,-1.803 -2.962,-3.685 -4.592,-5.41c1.577,-0.044 3.154,-0.061 4.74,-0.061c0.104,-0.558 0.218,-1.124 0.322,-1.681l0,-0Z" style="fill:#f7debd;fill-rule:nonzero;"/><path id="path96" d="M304.135,165.537c1.072,0.984 1.96,2.213 2.875,3.345c-0.662,6.299 0.366,12.432 -0.383,18.731c-0.392,3.956 -1.534,7.658 -2.579,11.465c-2.387,-2.151 -4.853,-4.138 -7.78,-5.514c0.819,-8.826 2.291,-18.026 1.315,-26.869c2.196,-1.158 4.034,-2.282 6.552,-1.158Z" style="fill:#0af98e;fill-rule:nonzero;"/><path id="path98" d="M174.751,169.902c1.35,0.461 3.197,0.714 3.25,2.509c0.2,4.077 -0.253,8.111 0.392,12.188c0.435,-0.035 0.88,-0.07 1.324,-0.105c1.141,1.508 2.169,3.233 3.563,4.522c2.509,1.96 5.715,2.779 8.773,3.398c0.018,0.549 0.026,1.106 0.044,1.655c6.822,0.34 13.6,-0.105 20.421,-0.078c0.384,0.967 0.767,1.934 1.107,2.918c0.313,2.875 0.514,5.768 0.871,8.643c-1.255,0.644 -2.544,1.89 -3.947,2.064c-1.873,-0.191 -3.711,-1.254 -5.419,-2.021c-0.148,-2.613 -0.339,-5.236 -0.636,-7.841c-4.643,-0.392 -9.243,-0.644 -13.904,-0.732c-6.012,-0.061 -10.594,-3.38 -16.536,-3.876c-4.887,-0.584 -9.74,0.714 -13.12,4.451c4.408,1.159 7.814,-1.725 12.188,-0.034c7.536,2.587 13.765,6.943 21.894,8.128c-2.257,0.801 -4.034,2.178 -5.733,3.816c-4.94,-1.499 -10.124,-3.842 -15.229,-4.6c-6.839,-0.349 -13.138,-0.593 -19.376,2.709c-4.155,2.083 -7.187,5.977 -7.997,10.559c-0.236,3.346 -0.358,6.857 0.244,10.167c1.864,7.266 4.6,13.992 10.245,19.158c6.682,6.073 15.002,8.904 23.819,10.08c10.786,1.142 21.563,0.244 32.122,-2.152c3.537,0.253 5.723,1.386 8.32,3.686c-3.137,1.158 -5.933,2.491 -9.296,2.927c-3.084,0.375 -6.203,0.479 -9.305,0.749c-0.296,0.854 -0.61,1.708 -0.923,2.553c3.171,3.023 7.606,6.717 12.223,6.578c2.073,0.052 3.293,-1.63 4.556,-3.015c1.917,-2.404 3.703,-4.913 5.524,-7.379c0.026,-1.263 0.139,-3.189 -0.95,-4.06c-1.01,-0.47 -2.152,-0.688 -3.215,-1.01c1.499,-0.61 3.05,-1.333 4.627,-1.682c2.282,-0.2 4.652,1.072 6.952,1.176c1.873,0.07 2.361,-2.361 3.197,-3.668c1.098,-0.453 2.196,-0.888 3.293,-1.324c1.734,-4.095 3.102,-7.954 6.012,-11.404c2.326,-2.91 5.549,-4.983 7.797,-7.919c1.194,-1.577 1.063,-3.424 1.124,-5.306c-0.026,-5.811 -0.139,-11.535 0.592,-17.32c0.671,-3.032 -2.247,-6.203 -3.563,-8.808c3.476,-3.65 6.979,-7.266 10.795,-10.568c2.169,1.839 4.399,3.555 6.734,5.175c0.61,3.947 2.126,7.467 3.424,11.196c2.213,12.989 0.967,24.681 2.248,37.932c-0.48,-0.287 -0.967,-0.584 -1.455,-0.88c0.627,4.714 -0.933,9.122 -0.619,13.844c-2.936,9.069 -8.407,17.563 -14.488,24.847c-9.723,10.873 -22.277,19.306 -36.051,24.106c-2.317,0.14 -4.644,0.209 -6.961,0.349c0.305,-0.61 0.601,-1.211 0.897,-1.821c-3.903,-0.209 -7.344,0.052 -11.169,0.871c-8.215,1.15 -16.84,0.505 -25.021,-0.732c-6.212,-0.862 -12.293,-3.153 -18.043,-5.636c-5.218,-2.449 -10.541,-5.515 -14.645,-9.61c-2.169,-2.169 -4.547,-4.208 -6.473,-6.595c-1.821,-1.873 -0.427,-4.705 -0.191,-6.97c-4.365,-3.946 -9.81,-6.081 -14.184,-10.001c-2.152,-1.795 -3.755,-3.999 -5.323,-6.29c0.906,-1.124 1.821,-2.248 2.736,-3.372c-2.788,-1.943 -5.411,-3.798 -7.057,-6.865c-2.466,-4.557 -5.01,-8.721 -6.316,-13.591c1.202,-0.68 2.413,-1.324 3.606,-1.995c-3.153,-6.421 -6.769,-12.162 -7.649,-19.446c0.575,-5.723 2.004,-11.02 2.204,-16.779c0.279,-5.236 -0.357,-10.49 -0.017,-15.708c0.113,-2.352 1.237,-4.104 2.326,-6.099c4.8,1.969 9.609,3.625 14.837,3.921c7.353,0.427 15.699,0.313 22.878,2.282c3.11,0.854 6.874,2.701 10.036,1.316c4.478,-2.039 6.247,-6.203 9.592,-9.104c3.032,-1.263 5.803,-1.29 8.024,-4.078l0,0.001Z" style="fill:#fdddb8;fill-rule:nonzero;"/><path id="path100" d="M234.133,190.175c2.736,-0.584 5.75,0.069 8.477,0.522c0.009,0.95 0.017,1.891 0.026,2.841c-2.762,0.792 -5.611,1.446 -8.285,2.491c-3.433,1.324 -5.933,4.391 -9.314,6.116c-3.415,1.786 -7.013,2.056 -10.541,3.407c-0.357,-2.875 -0.558,-5.768 -0.871,-8.643c4.295,-1.141 8.877,-2.134 12.954,-3.842c2.457,-1.002 4.975,-2.317 7.554,-2.892l-0,-0Z" style="fill:#b08a67;fill-rule:nonzero;"/><path id="path102" d="M174.054,193.145c5.942,0.497 10.524,3.816 16.536,3.877c4.661,0.087 9.261,0.34 13.904,0.732c0.296,2.605 0.488,5.227 0.636,7.841c-3.589,0.741 -6.508,0.732 -10.115,0.096c-8.128,-1.185 -14.357,-5.541 -21.893,-8.128c-4.374,-1.691 -7.78,1.193 -12.188,0.034c3.38,-3.737 8.233,-5.035 13.12,-4.451l0,-0.001Z" style="fill:#b08763;fill-rule:nonzero;"/><path id="path104" d="M304.048,199.078c-1.507,5.759 -1.664,11.553 -3.834,17.181c-2.047,6.29 -5.418,11.805 -8.311,17.712c-0.584,-9.026 -1.464,-18.409 1.499,-27.139c1.446,-4.321 2.3,-8.755 2.866,-13.268c2.927,1.376 5.393,3.363 7.78,5.514Z" style="fill:#10fb76;fill-rule:nonzero;"/><path id="path106" d="M235.022,202.197c3.092,-0.505 6.499,-0.435 9.6,0c2.858,1.49 4.679,4.261 5.393,7.362c0.898,6.029 -0.514,11.648 -2.77,17.198c-3.381,8.642 -9.618,17.006 -17.782,21.623c-2.57,0.279 -4.696,0.802 -6.926,2.117c0.758,-2.465 1.908,-4.382 0.183,-6.786c-1.368,-2.431 -3.72,-1.656 -6.072,-2.03c-2.126,-0.436 -4.226,-0.967 -6.317,-1.542c0.14,-0.488 0.279,-0.976 0.419,-1.473c-6.212,-0.339 -12.136,-1.934 -18.4,-1.664c-10.359,-0.113 -20.509,0.053 -30.545,2.98c-0.444,1.455 -0.906,2.91 -1.438,4.339c-1.002,1.106 -2.117,2.143 -3.197,3.179c-5.645,-5.166 -8.381,-11.892 -10.245,-19.157c-0.602,-3.311 -0.48,-6.822 -0.244,-10.168c0.81,-4.582 3.842,-8.476 7.997,-10.559c6.238,-3.302 12.537,-3.058 19.376,-2.709c5.105,0.758 10.289,3.101 15.229,4.6c6.935,2.352 14.157,2.692 21.414,2.213c6.038,-0.732 11.971,-2.884 17.32,-5.742c2.291,-1.219 4.539,-2.988 7.005,-3.781Z" style="fill:#090302;fill-rule:nonzero;"/><path id="path108" d="M240.127,206.257c-0.305,2.875 0.357,7.057 -1.516,9.462c-2.03,2.073 -5.079,3.31 -7.684,4.513c-9.008,4.12 -19.184,5.985 -28.985,6.978c-12.154,0.723 -24.473,0.557 -36.635,0.009c-4.539,-0.113 -7.64,-3.067 -8.991,-7.222c-0.348,-2.396 -0.261,-4.871 -0.34,-7.284c2.161,-0.976 4.461,-2.047 6.778,-2.57c2.884,-0.34 5.829,-0.314 8.73,-0.235c4.182,-0 8.216,1.751 12.11,3.18c3.467,1.359 7.004,2.213 10.629,3.023c5.253,1.342 11.064,0.932 16.466,0.845c7.344,-0.932 14.671,-3.311 20.944,-7.292c2.735,-1.603 5.209,-3.241 8.494,-3.406l-0,-0.001Z" style="fill:#f9fbf9;fill-rule:nonzero;"/><path id="path110" d="M102.789,213.07c0.706,0.34 1.394,0.697 2.082,1.08c0.88,7.284 4.496,13.025 7.649,19.446c-1.193,0.671 -2.404,1.315 -3.607,1.995c1.307,4.87 3.851,9.034 6.317,13.591c1.646,3.067 4.269,4.922 7.057,6.865c-0.915,1.124 -1.83,2.248 -2.736,3.372c1.568,2.291 3.171,4.495 5.323,6.29c4.374,3.92 9.819,6.055 14.183,10.001c-0.235,2.266 -1.629,5.097 0.192,6.97c1.926,2.387 4.304,4.426 6.473,6.595c4.104,4.095 9.427,7.162 14.645,9.61c5.75,2.483 11.831,4.774 18.043,5.636c8.181,1.237 16.806,1.882 25.021,0.732c1.638,0.201 3.259,0.471 4.888,0.741c-3.363,1.969 -6.743,1.838 -10.507,2.465c-9.148,1.464 -18.086,0.593 -27.243,-0.191c-4.582,-0.445 -8.973,-1.499 -13.416,-2.675c-7.214,-1.864 -14.245,-5.863 -20.936,-9.13c-4.861,-2.257 -8.389,-6.081 -12.51,-9.54c-4.409,-3.755 -8.329,-7.963 -12.075,-12.371c-5.785,-6.151 -9.584,-14.628 -13.522,-22.12c-2.7,-5.01 -4.312,-10.307 -5.959,-15.726c-0.975,0.41 -1.934,0.845 -2.91,1.272c3.085,-3.711 6.003,-7.475 8.329,-11.726c2.858,-4.295 4.374,-8.077 5.219,-13.182Z" style="fill:#b48864;fill-rule:nonzero;"/><path id="path112" d="M92.151,236.706c1.647,5.419 3.259,10.716 5.959,15.726c3.938,7.492 7.737,15.969 13.522,22.12c3.746,4.408 7.666,8.616 12.075,12.371c4.121,3.459 7.649,7.283 12.51,9.54c6.691,3.267 13.722,7.266 20.936,9.13c4.443,1.176 8.834,2.23 13.416,2.675c9.157,0.784 18.095,1.655 27.243,0.191c3.764,-0.627 7.144,-0.496 10.507,-2.465c-1.629,-0.27 -3.25,-0.54 -4.888,-0.741c3.825,-0.819 7.266,-1.08 11.169,-0.871c-0.296,0.61 -0.592,1.211 -0.897,1.821c2.317,-0.14 4.644,-0.209 6.961,-0.349c-6.151,2.492 -12.615,4.295 -19.149,5.463c-3.642,0.714 -7.162,1.594 -10.908,1.585c-7.518,0.183 -15.089,0.288 -22.599,-0.191c-6.691,-0.941 -13.443,-2.448 -19.655,-5.14c-5.453,-2.3 -10.716,-4.557 -15.725,-7.763c-19.446,-12.659 -34.43,-31.764 -42.184,-53.632c-0.732,-2.622 -2.797,-5.61 -1.203,-8.198c0.976,-0.427 1.935,-0.862 2.91,-1.272Z" style="fill:#f6dcc4;fill-rule:nonzero;"/><path id="path114" d="M35.583,237.795c0.985,0.296 1.961,0.601 2.936,0.915c2.745,2.866 5.141,4.286 9.07,5.114c2.683,0.854 6.63,1.237 8.39,3.615c2.23,2.736 4.129,5.724 6.42,8.416c3.416,4.67 7.432,8.739 11.5,12.825c-2.5,-1.56 -5.079,-2.91 -7.448,-4.679c-3.808,-2.779 -6.569,-6.272 -10.202,-9.313c-0.645,1.577 -1.795,3.276 -1.02,5.009c1.142,3.363 3.398,5.454 2.475,9.261c-1.595,-1.55 -3.233,-2.953 -4.688,-4.634c-6.647,-8.277 -12.562,-17.085 -17.433,-26.529Z" style="fill:#e59055;fill-rule:nonzero;"/><path id="path116" d="M44.418,237.377c3.066,1.586 5.872,3.171 9.391,3.598c3.72,0.427 7.536,0.34 11.265,-0.017c-4.757,1.376 -10.211,0.81 -15.142,0.636c0.314,0.74 0.628,1.481 0.933,2.221c-1.098,0.018 -2.187,0.018 -3.276,0.009c-3.929,-0.827 -6.325,-2.247 -9.07,-5.114c1.969,-0.453 3.904,-0.976 5.899,-1.333l-0,-0Z" style="fill:#220203;fill-rule:nonzero;"/><path id="path118" d="M192.35,237.002c6.264,-0.27 12.188,1.325 18.4,1.664c-0.14,0.497 -0.279,0.985 -0.419,1.473c2.091,0.575 4.191,1.106 6.317,1.542c1.838,1.246 3.598,2.57 5.375,3.894c-1.324,1.769 -2.509,3.023 -4.748,3.563c-6.046,1.586 -12.537,3.773 -18.801,3.642c-8.564,0 -18.06,0.531 -26.406,-1.568c-4.417,-1.385 -8.695,-3.232 -11.701,-6.891c0.532,-1.429 0.994,-2.884 1.438,-4.339c10.036,-2.927 20.186,-3.093 30.545,-2.98Z" style="fill:#961f29;fill-rule:nonzero;"/><path id="path120" d="M288.575,238.388c1.647,0.052 3.302,0.156 4.949,0.244c-1.847,3.136 -3.355,6.412 -4.984,9.653l-1.472,0.566c0.479,-3.494 0.949,-6.987 1.507,-10.463Z" style="fill:#86d3a5;fill-rule:nonzero;"/><path id="path122" d="M175.753,239.503c4.94,-0.366 9.897,-0.514 14.854,-0.619c7.519,-0.305 15.429,1.978 22.765,3.694c2.884,0.662 4.173,1.699 5.889,4.008c-7.875,3.093 -15.934,3.493 -24.298,3.424c-7.484,-0.105 -15.76,0.47 -23.052,-1.203c-3.955,-1.002 -6.796,-2.927 -9.139,-6.255c4.295,-1.377 8.433,-2.718 12.981,-3.049Z" style="fill:#f2163a;fill-rule:nonzero;"/><path id="path124" d="M216.648,241.681c2.352,0.374 4.704,-0.401 6.072,2.03c1.725,2.404 0.575,4.321 -0.183,6.786c2.23,-1.315 4.356,-1.838 6.926,-2.117c-5.009,3.494 -10.411,5.716 -16.352,7.049c-10.56,2.395 -21.336,3.293 -32.122,2.151c-8.817,-1.176 -17.137,-4.007 -23.819,-10.08c1.08,-1.036 2.195,-2.073 3.197,-3.179c3.006,3.659 7.284,5.506 11.701,6.891c8.346,2.099 17.842,1.568 26.406,1.568c6.264,0.131 12.755,-2.056 18.801,-3.642c2.239,-0.54 3.424,-1.794 4.748,-3.563c-1.777,-1.324 -3.537,-2.648 -5.375,-3.894Z" style="fill:#1a0401;fill-rule:nonzero;"/><path id="path126" d="M56.249,254.688c3.633,3.041 6.394,6.534 10.202,9.313c2.369,1.769 4.948,3.119 7.448,4.679c0.915,0.932 1.813,1.899 2.692,2.866c-0.592,-0 -1.193,-0 -1.794,0.009c1.263,2.431 2.631,4.8 3.676,7.336c-2.091,1.533 -4.19,3.058 -6.29,4.573c-5.645,-4.303 -10.123,-8.903 -14.479,-14.505c0.923,-3.807 -1.333,-5.898 -2.475,-9.261c-0.775,-1.734 0.375,-3.433 1.02,-5.01l-0,-0Z" style="fill:#f2b23c;fill-rule:nonzero;"/><path id="path128" d="M62.399,255.855c5.498,4.67 10.124,10.211 15.621,14.889c5.367,5.088 11.553,8.826 17.695,12.851c4.687,3.075 7.597,7.283 11.064,11.543c-4.635,-3.45 -7.37,-8.276 -12.397,-11.195c-6.116,-3.694 -11.753,-7.614 -17.346,-12.066l-0.445,-0.331c-0.879,-0.967 -1.777,-1.934 -2.692,-2.866c-4.068,-4.086 -8.084,-8.155 -11.5,-12.825Z" style="fill:#735a20;fill-rule:nonzero;"/><path id="path130" d="M221.431,259.114c0.958,0.775 1.864,1.594 2.779,2.413c-1.821,2.466 -3.607,4.975 -5.524,7.379c-1.263,1.385 -2.483,3.067 -4.556,3.015c-4.618,0.139 -9.052,-3.555 -12.223,-6.578c0.313,-0.845 0.627,-1.699 0.923,-2.553c3.102,-0.27 6.221,-0.374 9.305,-0.749c3.363,-0.436 6.159,-1.769 9.296,-2.927Z" style="fill:#af8560;fill-rule:nonzero;"/><path id="path132" d="M241.103,267.512c-0.636,8.338 -6.752,16.266 -13.574,20.761c-7.745,4.714 -17.346,7.284 -26.406,5.985c-7.484,-1.489 -14.811,-5.053 -19.507,-11.229c-0.723,-2.414 -0.854,-5.428 1.856,-6.622c1.577,-0.505 3.947,-0.827 5.314,0.331c3.285,2.361 6.229,4.914 10.037,6.456c4.931,2.23 10.08,1.952 15.359,1.664c8.991,-1.263 16.135,-6.525 21.667,-13.495c1.786,-1.96 2.03,-4.304 5.254,-3.851Z" style="fill:#110502;fill-rule:nonzero;"/><path id="path134" d="M74.797,271.555c0.601,-0.009 1.202,-0.009 1.794,-0.009l0.445,0.331c5.593,4.452 11.23,8.372 17.346,12.066c5.027,2.919 7.762,7.745 12.397,11.195c2.352,2.413 4.783,4.731 7.37,6.883c-0.731,0.662 -1.498,1.315 -2.308,1.882c-2.274,0.043 -4.67,-1.185 -6.709,-2.091c-5.41,-2.701 -10.881,-4.818 -15.655,-8.643c-2.84,-2.265 -5.219,-3.075 -8.826,-3.493c-2.91,-1.926 -5.715,-4.052 -8.468,-6.212c2.1,-1.516 4.199,-3.041 6.29,-4.574c-1.045,-2.535 -2.413,-4.905 -3.676,-7.336l-0,0.001Z" style="fill:#f6db37;fill-rule:nonzero;"/><path id="path136" d="M76.591,271.546l0.445,0.331l-0.445,-0.331Z" style="fill:#c5a560;fill-rule:nonzero;"/><path id="path138" d="M80.651,289.676c3.607,0.418 5.986,1.228 8.826,3.493c4.774,3.825 10.245,5.942 15.655,8.643c2.039,0.906 4.435,2.134 6.709,2.091c0.81,-0.566 1.577,-1.22 2.308,-1.882c3.372,3.171 8.312,5.166 10.865,9c-4.313,-0.567 -8.033,-2.266 -12.023,-3.86c-11.239,-4.478 -22.852,-9.862 -32.34,-17.485Z" style="fill:#d9e979;fill-rule:nonzero;"/></g></svg>