<?xml version="1.0" encoding="UTF-8" standalone="no"?>
<svg
   version="1.1"
   x="0px"
   y="0px"
   viewBox="0 0 1000 598.85687"
   id="svg72"
   xml:space="preserve"
   width="1000"
   height="598.85687"
   xmlns:xlink="http://www.w3.org/1999/xlink"
   xmlns="http://www.w3.org/2000/svg"
   xmlns:svg="http://www.w3.org/2000/svg"><defs
     id="defs72"><radialGradient
       id="SVGID_1_"
       cx="108.0817"
       cy="661.71552"
       r="197.6915"
       gradientTransform="matrix(2.7272417,0,0,2.7272417,205.01469,-1505.2238)"
       gradientUnits="userSpaceOnUse"><stop
         offset="0.3252"
         style="stop-color:#FFFFFF"
         id="stop1" /><stop
         offset="0.3947"
         style="stop-color:#FAFBFC"
         id="stop2" /><stop
         offset="0.4781"
         style="stop-color:#EBEFF2"
         id="stop3" /><stop
         offset="0.5688"
         style="stop-color:#D3DBE2"
         id="stop4" /><stop
         offset="0.6645"
         style="stop-color:#B1BFCB"
         id="stop5" /><stop
         offset="0.7642"
         style="stop-color:#869BAE"
         id="stop6" /><stop
         offset="0.8674"
         style="stop-color:#506F8B"
         id="stop7" /><stop
         offset="0.9713"
         style="stop-color:#123C62"
         id="stop8" /><stop
         offset="1"
         style="stop-color:#002D56"
         id="stop9" /></radialGradient><radialGradient
       id="SVGID_2_"
       cx="17.1087"
       cy="661.71118"
       r="96.532997"
       gradientTransform="matrix(2.7272417,0,0,2.7272417,205.01469,-1505.2238)"
       gradientUnits="userSpaceOnUse"><stop
         offset="0.6012"
         style="stop-color:#FFFFFF"
         id="stop12" /><stop
         offset="0.6523"
         style="stop-color:#FBFCFD;stop-opacity:0.9155"
         id="stop13" /><stop
         offset="0.7032"
         style="stop-color:#EFF2F6;stop-opacity:0.8312"
         id="stop14" /><stop
         offset="0.7542"
         style="stop-color:#DBE2EC;stop-opacity:0.7468"
         id="stop15" /><stop
         offset="0.8053"
         style="stop-color:#BFCBDD;stop-opacity:0.6623"
         id="stop16" /><stop
         offset="0.8563"
         style="stop-color:#9BADC9;stop-opacity:0.5778"
         id="stop17" /><stop
         offset="0.9075"
         style="stop-color:#6E89B1;stop-opacity:0.4932"
         id="stop18" /><stop
         offset="0.9576"
         style="stop-color:#3B5F96;stop-opacity:0.4101"
         id="stop19" /><stop
         offset="1"
         style="stop-color:#09367B;stop-opacity:0.34"
         id="stop20" /></radialGradient><radialGradient
       id="SVGID_3_"
       cx="199.2206"
       cy="661.71118"
       r="96.537804"
       gradientTransform="matrix(2.7272417,0,0,2.7272417,205.01469,-1505.2238)"
       gradientUnits="userSpaceOnUse"><stop
         offset="0.6012"
         style="stop-color:#FFFFFF"
         id="stop21" /><stop
         offset="0.6523"
         style="stop-color:#FBFCFD;stop-opacity:0.9155"
         id="stop22" /><stop
         offset="0.7032"
         style="stop-color:#EFF2F6;stop-opacity:0.8312"
         id="stop23" /><stop
         offset="0.7542"
         style="stop-color:#DBE2EC;stop-opacity:0.7468"
         id="stop24" /><stop
         offset="0.8053"
         style="stop-color:#BFCBDD;stop-opacity:0.6623"
         id="stop25" /><stop
         offset="0.8563"
         style="stop-color:#9BADC9;stop-opacity:0.5778"
         id="stop26" /><stop
         offset="0.9075"
         style="stop-color:#6E89B1;stop-opacity:0.4932"
         id="stop27" /><stop
         offset="0.9576"
         style="stop-color:#3B5F96;stop-opacity:0.4101"
         id="stop28" /><stop
         offset="1"
         style="stop-color:#09367B;stop-opacity:0.34"
         id="stop29" /></radialGradient><linearGradient
       id="SVGID_4_"
       gradientUnits="userSpaceOnUse"
       x1="71.979301"
       y1="41.868401"
       x2="71.979301"
       y2="0.061700001"
       gradientTransform="matrix(11.363507,0,0,11.363507,-318.16685,-109.64647)"><stop
         offset="0.4983"
         style="stop-color:#FFFFFF"
         id="stop33" /><stop
         offset="0.5626"
         style="stop-color:#FBFCFD;stop-opacity:0.9155"
         id="stop34" /><stop
         offset="0.6267"
         style="stop-color:#EFF2F6;stop-opacity:0.8312"
         id="stop35" /><stop
         offset="0.6908"
         style="stop-color:#DBE2EC;stop-opacity:0.7468"
         id="stop36" /><stop
         offset="0.755"
         style="stop-color:#BFCBDD;stop-opacity:0.6623"
         id="stop37" /><stop
         offset="0.8193"
         style="stop-color:#9BADC9;stop-opacity:0.5778"
         id="stop38" /><stop
         offset="0.8836"
         style="stop-color:#6E89B1;stop-opacity:0.4932"
         id="stop39" /><stop
         offset="0.9467"
         style="stop-color:#3B5F96;stop-opacity:0.4101"
         id="stop40" /><stop
         offset="1"
         style="stop-color:#09367B;stop-opacity:0.34"
         id="stop41" /></linearGradient><radialGradient
       id="SVGID_16_"
       cx="108.6787"
       cy="524.43323"
       r="234.7677"
       gradientTransform="matrix(2.7272417,0,0,2.7272417,205.01469,-1505.2238)"
       gradientUnits="userSpaceOnUse"><stop
         offset="0"
         style="stop-color:#79BDE8"
         id="stop56" /><stop
         offset="0.8405"
         style="stop-color:#002D56"
         id="stop57" /></radialGradient><radialGradient
       id="SVGID_17_"
       cx="108.6223"
       cy="524.43323"
       r="238.59419"
       gradientTransform="matrix(2.7272417,0,0,2.7272417,205.01469,-1505.2238)"
       gradientUnits="userSpaceOnUse"><stop
         offset="0"
         style="stop-color:#79BDE8"
         id="stop58" /><stop
         offset="0.8405"
         style="stop-color:#002D56"
         id="stop59" /></radialGradient><radialGradient
       id="SVGID_18_"
       cx="108.4255"
       cy="524.43323"
       r="239.9993"
       gradientTransform="matrix(2.7272417,0,0,2.7272417,205.01469,-1505.2238)"
       gradientUnits="userSpaceOnUse"><stop
         offset="0"
         style="stop-color:#79BDE8"
         id="stop60" /><stop
         offset="0.8405"
         style="stop-color:#002D56"
         id="stop61" /></radialGradient><radialGradient
       id="SVGID_19_"
       cx="108.3029"
       cy="524.43323"
       r="238.4781"
       gradientTransform="matrix(2.7272417,0,0,2.7272417,205.01469,-1505.2238)"
       gradientUnits="userSpaceOnUse"><stop
         offset="0"
         style="stop-color:#79BDE8"
         id="stop62" /><stop
         offset="0.8405"
         style="stop-color:#002D56"
         id="stop63" /></radialGradient><radialGradient
       id="SVGID_20_"
       cx="108.2278"
       cy="524.43323"
       r="234.97791"
       gradientTransform="matrix(2.7272417,0,0,2.7272417,205.01469,-1505.2238)"
       gradientUnits="userSpaceOnUse"><stop
         offset="0"
         style="stop-color:#79BDE8"
         id="stop64" /><stop
         offset="0.8405"
         style="stop-color:#002D56"
         id="stop65" /></radialGradient><radialGradient
       id="SVGID_21_"
       cx="108.0061"
       cy="524.43323"
       r="230.5596"
       gradientTransform="matrix(2.7272417,0,0,2.7272417,205.01469,-1505.2238)"
       gradientUnits="userSpaceOnUse"><stop
         offset="0"
         style="stop-color:#79BDE8"
         id="stop66" /><stop
         offset="0.8405"
         style="stop-color:#002D56"
         id="stop67" /></radialGradient><defs
       id="defs48"><path
         id="SVGID_8_"
         d="m 33.642,26.394 c 2.956,-1.431 5.752,-2.195 9.068,-2.796 2.631,-3.104 5.232,-5.071 10.759,-8.029 2.084,-1.117 1.606,-2.177 -0.585,-1.593 -2.19,0.585 -12.026,3.023 -19.242,12.418 z" /></defs><clipPath
       id="SVGID_9_"><use
         xlink:href="#SVGID_8_"
         style="overflow:visible"
         id="use48" /></clipPath><linearGradient
       id="SVGID_10_"
       gradientUnits="userSpaceOnUse"
       x1="13.7303"
       y1="40.315399"
       x2="71.940598"
       y2="10.6654"><stop
         offset="0"
         style="stop-color:#79BDE8"
         id="stop48" /><stop
         offset="0.7"
         style="stop-color:#002D56"
         id="stop49" /></linearGradient><defs
       id="defs51"><path
         id="SVGID_12_"
         d="m 110.309,26.394 c -2.957,-1.431 -5.754,-2.195 -9.071,-2.796 -2.632,-3.104 -5.233,-5.071 -10.76,-8.029 -2.085,-1.117 -1.603,-2.177 0.587,-1.593 2.191,0.585 12.027,3.023 19.244,12.418 z" /></defs><clipPath
       id="SVGID_13_"><use
         xlink:href="#SVGID_12_"
         style="overflow:visible"
         id="use51" /></clipPath><linearGradient
       id="SVGID_14_"
       gradientUnits="userSpaceOnUse"
       x1="130.14391"
       y1="40.5354"
       x2="71.996002"
       y2="10.3068"><stop
         offset="0"
         style="stop-color:#79BDE8"
         id="stop52" /><stop
         offset="0.7"
         style="stop-color:#002D56"
         id="stop53" /></linearGradient><radialGradient
       id="SVGID_5_"
       cx="106.7075"
       cy="547.26477"
       r="194.9978"
       gradientTransform="matrix(0.24,0,0,0.24,46.0405,-122.8122)"
       gradientUnits="userSpaceOnUse"><stop
         offset="0"
         style="stop-color:#79BDE8"
         id="stop42" /><stop
         offset="0.6503"
         style="stop-color:#002D56"
         id="stop43" /></radialGradient><radialGradient
       id="SVGID_7_"
       cx="106.7089"
       cy="547.26562"
       r="195.00079"
       gradientTransform="matrix(2.7272417,0,0,2.7272417,205.01469,-1505.2238)"
       gradientUnits="userSpaceOnUse"><stop
         offset="0"
         style="stop-color:#79BDE8"
         id="stop46" /><stop
         offset="0.6503"
         style="stop-color:#002D56"
         id="stop47" /></radialGradient><radialGradient
       id="SVGID_6_"
       cx="106.7038"
       cy="547.27972"
       r="194.991"
       gradientTransform="matrix(0.24,0,0,0.24,46.0405,-122.8122)"
       gradientUnits="userSpaceOnUse"><stop
         offset="0"
         style="stop-color:#79BDE8"
         id="stop44" /><stop
         offset="0.6503"
         style="stop-color:#002D56"
         id="stop45" /></radialGradient></defs><ellipse
     style="fill:#ffffff;stroke-width:11.3635"
     cx="499.99432"
     cy="299.42844"
     rx="499.99432"
     ry="299.42844"
     id="ellipse1" /><path
     style="opacity:0.6;fill:url(#SVGID_1_);stroke-width:11.3635"
     d="m 499.76705,37.704126 c -112.04418,0 -212.23623,36.32914 -279.11047,93.464854 -41.14726,47.28355 -65.4538,105.38516 -65.4538,168.25945 0,62.88565 24.30654,120.96454 65.4538,168.25946 66.85151,57.13571 167.06629,93.48757 279.11047,93.48757 112.05554,0 212.23622,-36.36322 279.11046,-93.46485 41.1359,-47.28355 65.48789,-105.39653 65.48789,-168.28218 0,-62.88565 -24.35199,-120.9759 -65.48789,-168.29354 C 712.00327,74.033266 611.81123,37.704126 499.76705,37.704126 Z"
     id="path9" /><path
     style="opacity:0.3;fill:#002d56;stroke-width:11.3635"
     d="M 500.01705,0.01137573 C 223.88381,0.01137573 0.03408354,134.05531 0.03408354,299.41707 0.03408354,464.80156 223.87245,598.85685 500.01705,598.85685 776.12754,598.86822 1000,464.80156 1000,299.42843 1000,134.05531 776.12754,0.01137573 500.01705,0.01137573 Z m 0,570.53898427 c -206.50903,0 -373.88212,-121.36226 -373.88212,-271.13329 0,-149.7483 167.37309,-271.133284 373.88212,-271.133284 206.46356,0 373.83666,121.384984 373.83666,271.133284 0,149.77103 -167.3731,271.13329 -373.83666,271.13329 z"
     id="path10" /><path
     style="fill:#ffffff;stroke-width:11.3635"
     d="M 488.97172,570.35718 C 287.61036,566.11859 126.13493,446.50631 126.13493,299.42843 c 0,-147.05514 161.47543,-266.701514 362.83679,-270.928744 V 12.533966 C 225.87243,16.022556 14.386194,143.07794 14.386194,299.43979 c 0,156.36187 211.486236,283.41724 474.585526,286.90584 z"
     id="path11" /><path
     style="fill:#ffffff;stroke-width:11.3635"
     d="m 511.01692,12.522596 v 15.96573 c 201.38407,4.23859 362.85951,123.873594 362.85951,270.928744 0,147.07788 -161.47544,266.69015 -362.85951,270.92874 v 15.97709 c 263.12201,-3.48859 474.64233,-130.53261 474.64233,-286.90583 0,-156.36186 -211.52032,-283.405874 -474.64233,-286.894474 z"
     id="path12" /><path
     style="opacity:0.11;fill:url(#SVGID_2_);stroke-width:11.3635"
     d="M 488.97172,570.35718 C 287.61036,566.11859 126.13493,446.50631 126.13493,299.42843 c 0,-147.05514 161.47543,-266.701514 362.83679,-270.928744 V 12.533966 C 225.87243,16.022556 14.386194,143.07794 14.386194,299.43979 c 0,156.36187 211.486236,283.41724 474.585526,286.90584 z"
     id="path20" /><path
     style="opacity:0.11;fill:url(#SVGID_3_);stroke-width:11.3635"
     d="m 511.01692,12.522596 v 15.96573 c 201.38407,4.23859 362.85951,123.873594 362.85951,270.928744 0,147.07788 -161.47544,266.69015 -362.85951,270.92874 v 15.97709 c 263.12201,-3.48859 474.64233,-130.53261 474.64233,-286.90583 0,-156.36186 -211.52032,-283.405874 -474.64233,-286.894474 z"
     id="path29" /><path
     style="fill:#002d56;stroke-width:11.3635"
     d="m 109.99874,286.30358 c 5.95448,-93.99893 75.16961,-176.04345 177.70253,-224.190634 l -2.10225,-7.85219 C 140.70294,98.123896 39.749544,185.05473 31.681454,286.31494 h 78.317286 z"
     id="path30" /><path
     style="fill:#002d56;stroke-width:11.3635"
     d="M 109.70329,305.72381 H 31.306464 c 3.9545,104.16928 106.169246,194.03189 254.303926,238.88366 l 2.10225,-7.87491 C 182.67974,487.40357 112.62371,402.58635 109.70329,305.72381 Z"
     id="path31" /><path
     style="fill:#002d56;stroke-width:11.3635"
     d="m 890.01261,286.30358 h 78.30593 C 960.27318,184.92973 859.05842,97.907996 713.84416,54.078946 l -2.04543,7.784 C 814.61574,109.97604 884.08086,192.13419 890.01261,286.30358 Z"
     id="path32" /><path
     style="fill:#002d56;stroke-width:11.3635"
     d="m 890.33079,305.72381 c -2.92042,96.99891 -73.2378,181.96385 -178.48661,231.27011 l 2.0568,7.77264 C 862.31975,499.93752 964.77313,410.02945 968.75036,305.72381 Z"
     id="path33" /><path
     style="opacity:0.7;fill:url(#SVGID_4_);stroke-width:11.3635"
     d="m 828.36559,212.88396 v 0 C 817.10435,183.28202 800.29772,155.70279 778.90024,131.12353 712.01463,73.987806 611.85668,37.658676 499.80114,37.658676 c -112.05555,0 -212.24759,36.3405 -279.12183,93.476214 -21.40885,24.65881 -38.23821,52.23804 -49.49944,81.89679 116.21459,-62.49928 213.69076,-71.91963 326.59856,-71.91963 119.44183,0.0114 213.47485,9.43171 330.58716,71.77191 z"
     id="path41" /><path
     style="fill:#edf4fa;stroke-width:11.3635"
     d="M 377.60935,126.39631 H 373.9503 234.57688 230.6451 v 3.92041 231.47464 3.93178 h 3.93178 65.16971 3.93177 v -3.93178 -70.88556 h 60.11296 3.93177 v -3.93177 -63.1811 -3.90905 h -3.93177 -59.65842 v -22.35202 h 74.10144 4.21586 l -0.30682,-4.19313 -4.31813,-63.27201 z"
     id="path3" /><polygon
     style="fill:url(#SVGID_5_)"
     points="48.642,21.116 60.908,21.116 61.285,26.687 54.417,26.687 54.417,29.342 60.013,29.342 60.013,34.902 54.377,34.902 54.377,41.486 48.642,41.486 "
     id="polygon43"
     transform="matrix(11.363507,0,0,11.363507,-318.16685,-109.64647)" /><path
     style="fill:#edf4fa;stroke-width:11.3635"
     d="m 773.93439,126.71449 h -6.76129 -69.79466 -2.28407 l -1.11362,1.95452 -25.5338,43.95404 -25.0679,-43.93131 -1.12499,-1.97725 h -2.2727 -72.21509 -6.79537 l 3.39768,5.89766 63.4311,109.51011 -67.29469,117.49867 -3.3636,5.90903 6.79538,-0.0341 h 70.13557 2.30679 l 1.12499,-1.98862 30.04511,-52.56759 30.40875,52.45395 1.13635,1.97726 h 2.28406 72.15827 6.80674 l -3.43178,-5.90903 -68.57876,-118.15775 62.24929,-108.71467 z"
     id="path4" /><polygon
     style="fill:url(#SVGID_6_)"
     points="89.723,41.457 96.073,41.457 89.935,30.888 95.512,21.147 89.369,21.147 86.822,25.531 84.318,21.147 77.963,21.147 83.644,30.956 77.626,41.468 83.799,41.466 86.745,36.317 "
     id="polygon45"
     transform="matrix(11.363507,0,0,11.363507,-318.16685,-109.64647)" /><path
     id="path2"
     style="fill:#edf4fa;stroke-width:11.3635"
     d="m 486.73346,129.85277 c -62.95383,0 -114.18993,52.27213 -114.18993,116.47594 0,64.23791 51.2361,116.49815 114.18993,116.49815 62.99928,0 114.25652,-52.2716 114.25652,-116.49815 -0.0114,-64.20381 -51.25724,-116.47594 -114.25652,-116.47594 z m 0.33291,54.1764 c 8.14764,0 15.58044,7.65972 15.58044,16.06871 v 92.46166 c 0,8.06809 -7.11462,14.87022 -15.58044,14.87022 -8.14763,0 -14.78143,-6.7952 -14.78143,-15.15874 v -92.17314 c 0,-8.55672 6.90652,-16.06871 14.78143,-16.06871 z" /><path
     style="fill:url(#SVGID_7_);stroke-width:11.3635"
     d="m 376.47299,246.32676 c 0,-62.11293 49.36308,-112.53281 110.26012,-112.53281 60.95385,0 110.32828,50.41988 110.32828,112.53281 0,62.19248 -49.37443,112.5669 -110.32828,112.5669 -60.89704,0 -110.26012,-50.37442 -110.26012,-112.5669 z m 130.11216,46.22675 v -92.46486 c 0,-10.52261 -9.17035,-19.99977 -19.5225,-19.99977 -10.3067,0 -18.67024,9.47716 -18.67024,19.99977 l -0.0341,92.19213 c 0,10.54534 8.39763,19.10206 18.70433,19.10206 10.34079,-0.0114 19.5225,-8.26127 19.5225,-18.82933 z"
     id="path47" /><path
     style="fill:url(#SVGID_10_)"
     d="m 37.682,34.844 c 0.524,-8.272 6.615,-15.492 15.64,-19.729 l -0.185,-0.691 c -12.754,3.86 -21.635,11.51 -22.346,20.421 h 6.891 z"
     clip-path="url(#SVGID_9_)"
     id="path49"
     transform="matrix(11.363507,0,0,11.363507,-318.16685,-109.64647)" /><path
     style="fill:url(#SVGID_14_)"
     d="m 106.326,34.844 h 6.889 C 112.506,25.922 103.597,18.265 90.822,14.408 l -0.181,0.684 c 9.05,4.235 15.161,11.465 15.685,19.752 z"
     clip-path="url(#SVGID_13_)"
     id="path53"
     transform="matrix(11.363507,0,0,11.363507,-318.16685,-109.64647)" /><path
     style="opacity:0.5;fill:#002d56;stroke-width:11.3635"
     d="m 500.01705,28.295146 c -206.50903,0 -373.88212,121.384994 -373.88212,271.133284 0,149.77103 167.37309,271.13329 373.88212,271.13329 206.46356,0 373.83666,-121.36226 373.83666,-271.13329 0,-149.74829 -167.3731,-271.133284 -373.83666,-271.133284 z M 778.87751,467.69925 c -66.87424,57.11299 -167.05492,93.46485 -279.11046,93.46485 -112.04418,0 -212.25896,-36.36323 -279.11047,-93.48758 -41.14726,-47.29491 -65.4538,-105.3738 -65.4538,-168.25945 0,-62.87429 24.30654,-120.9759 65.4538,-168.25945 66.87424,-57.135724 167.06629,-93.464854 279.11047,-93.464854 112.04418,0 212.23622,36.32913 279.11046,93.430764 41.1359,47.31764 65.48789,105.40789 65.48789,168.29354 0,62.88565 -24.35199,121.00999 -65.48789,168.28218 z"
     id="path56" /><path
     style="fill:#edf4fa;stroke-width:11.3635"
     d="m 311.90554,373.48441 h -3.9545 -66.90833 -1.62498 l -1.17044,1.14772 -11.80669,11.79532 -1.14771,1.13635 v 1.61361 29.31785 1.63635 l 1.14771,1.14771 10.23852,10.22716 1.13635,1.13635 h 1.64771 43.54496 v 8.159 h -47.63582 -1.5568 l -1.17044,1.0909 -6.15902,5.93175 -1.19317,1.17044 v 1.65907 12.03395 3.9545 h 3.93177 69.35149 1.61362 l 1.13635,-1.15907 11.82941,-11.79532 1.12499,-1.14772 v -1.63634 -29.70421 -1.63635 l -1.12499,-1.14771 -10.24989,-10.22716 -1.15907,-1.13635 h -1.62498 -43.47678 v -7.84082 h 46.4881 1.67044 l 1.17044,-1.15908 4.76131,-4.94312 1.14772,-1.12499 v -1.61362 -12.97712 -3.90905 z"
     id="path7" /><path
     style="fill:url(#SVGID_16_);stroke-width:11.3635"
     d="m 229.22466,462.72203 v -12.03395 l 6.15902,-5.94311 h 49.71535 l 1.88634,-1.86362 v -12.76122 l -1.36362,-1.37498 h -46.1472 l -10.23852,-10.22716 v -29.31785 l 11.81804,-11.79532 h 66.90834 v 12.97713 l -4.80677,4.9204 h -48.55626 l -1.87498,1.86361 v 12.4544 l 1.35225,1.3409 h 46.0563 l 10.23852,10.26125 v 29.7042 l -11.79532,11.79532 z"
     id="path57" /><path
     id="path17"
     style="fill:#edf4fa;stroke-width:11.3635"
     d="m 321.11921,373.48015 v 5.39322 83.85027 3.95059 h 3.90621 23.50382 3.88402 v -3.95059 -23.45943 h 42.05829 1.59799 l 1.15411,-1.15411 13.16124,-13.16125 1.15412,-1.13192 v -1.64238 -31.62695 -1.59799 l -1.15412,-1.1541 -13.16124,-13.16125 -1.15411,-1.15411 h -1.59799 -69.44613 z m 31.29405,25.94519 h 26.52224 l 1.15411,1.13192 v 13.09466 l -1.15411,1.13192 h -26.52224 z" /><path
     style="fill:url(#SVGID_17_);stroke-width:11.3635"
     d="m 325.01903,377.40482 h 69.4424 L 407.609,390.5524 v 31.61328 l -13.14757,13.15894 h -45.9313 v 27.38605 h -23.5111 z m 55.54483,41.30635 3.44314,-3.43178 v -16.32936 l -3.44314,-3.4545 h -32.03373 v 23.21564 z"
     id="path59" /><path
     id="path15"
     style="fill:#edf4fa;stroke-width:11.3635"
     d="m 431.31417,373.48015 -1.13191,1.15411 -13.05028,13.16125 -1.13191,1.17629 v 1.5758 59.05917 1.598 l 1.13191,1.1541 13.05028,13.13905 1.13191,1.17631 h 1.66457 57.63873 1.62019 l 1.1763,-1.15411 13.13906,-13.16125 1.1541,-1.13191 v -1.62019 -59.03697 -1.62019 l -1.1541,-1.13191 -13.13906,-13.16125 -1.1763,-1.1763 h -1.62019 -57.63873 z m 18.42131,26.38909 h 24.10307 l 2.53015,2.50796 v 33.95735 l -2.53015,2.48577 h -24.10307 l -2.48577,-2.48577 V 402.3772 Z" /><path
     style="fill:url(#SVGID_18_);stroke-width:11.3635"
     d="m 419.93841,449.60855 v -59.04479 l 13.03394,-13.14758 h 57.64708 l 13.15894,13.14758 v 59.04479 l -13.15894,13.12485 h -57.64708 z m 55.51073,-6.8522 4.85222,-4.77267 V 400.7341 l -4.85222,-4.81813 h -27.32923 l -4.7954,4.81813 v 37.24958 l 4.7954,4.77267 z"
     id="path61" /><path
     id="path13"
     style="fill:#edf4fa;stroke-width:11.3635"
     d="m 515.18662,373.48015 v 3.9284 85.31509 3.95059 h 3.9284 23.48162 3.9062 v -3.95059 -27.05492 h 18.42132 l 10.03184,28.65291 1.02094,2.3526 h 2.55235 26.14495 6.08125 l -2.53015,-5.57079 -13.71612,-32.55911 9.34382,-9.36602 1.15411,-1.1319 v -1.62019 -27.23246 -1.6202 l -1.15411,-1.13191 -11.8074,-11.80739 -1.1541,-1.15411 h -1.62018 -70.15634 z m 31.33842,25.34595 h 26.07836 l 1.06533,1.04314 v 10.63109 l -1.02094,1.04313 h -26.12275 z" /><path
     style="fill:url(#SVGID_19_);stroke-width:11.3635"
     d="m 519.1191,377.40482 h 70.16966 l 11.80668,11.79532 v 27.23833 l -11.2726,11.2726 14.84074,35.02233 H 578.52751 L 567.48219,431.79057 H 542.60747 V 462.7334 H 519.1191 Z m 55.13574,36.60186 3.34087,-3.34087 v -12.43168 l -3.34087,-3.34087 h -31.64737 v 19.12478 h 31.64737 z"
     id="path63" /><path
     style="fill:#edf4fa;stroke-width:11.3635"
     d="m 690.76488,373.48441 h -3.93178 -77.80593 -3.93178 v 3.92041 19.76114 3.93177 h 3.93178 23.24973 v 61.6243 3.9545 h 3.90905 23.49973 3.89769 v -3.9545 -61.6243 h 23.24973 3.93178 v -3.93177 -19.76114 z"
     id="path6" /><path
     style="fill:url(#SVGID_20_);stroke-width:11.3635"
     d="m 636.18595,397.16596 h -27.15878 v -19.76114 h 77.80593 v 19.76114 h -27.14742 v 65.55607 h -23.49973 z"
     id="path65" /><path
     style="fill:#edf4fa;stroke-width:11.3635"
     d="m 776.95708,373.48441 h -3.90905 -66.93106 -1.63634 l -1.14771,1.14772 -11.78396,11.79532 -1.15908,1.13635 v 1.61361 29.31785 1.63635 l 1.15908,1.14771 10.23852,10.22716 1.13635,1.13635 h 1.63634 43.56769 v 8.159 h -47.66991 -1.5568 l -1.15908,1.0909 -6.17038,5.93175 -1.19317,1.17044 v 1.65907 12.03395 3.9545 h 3.90904 69.35149 1.63634 l 1.15908,-1.15907 11.78396,-11.79532 1.13635,-1.14772 v -1.63634 -29.70421 -1.63635 l -1.13635,-1.14771 -10.22716,-10.22716 -1.17044,-1.13635 h -1.59089 -43.51087 v -7.84082 h 46.49947 1.67044 l 1.15908,-1.15908 4.77267,-4.94312 1.11362,-1.12499 v -1.61362 -12.97712 -3.90905 z"
     id="path5" /><path
     style="fill:url(#SVGID_21_);stroke-width:11.3635"
     d="m 694.29893,462.72203 v -12.03395 l 6.17038,-5.94311 h 49.71535 l 1.88634,-1.86362 v -12.76122 l -1.36362,-1.37498 h -46.14721 l -10.26124,-10.22716 v -29.31785 l 11.81804,-11.79532 h 66.93106 v 12.97713 l -4.80676,4.9204 h -48.53354 l -1.88634,1.86361 v 12.4544 l 1.35225,1.3409 h 46.07903 l 10.22715,10.26125 v 29.7042 l -11.81804,11.79532 z"
     id="path67" /></svg>
