<?xml version="1.0" encoding="UTF-8" standalone="no"?>
<!-- Created with Inkscape (http://www.inkscape.org/) -->

<svg
   width="1000.0024"
   height="368.21045"
   viewBox="0 0 1000.0025 368.21045"
   version="1.1"
   id="svg1"
   xmlns:xlink="http://www.w3.org/1999/xlink"
   xmlns="http://www.w3.org/2000/svg"
   xmlns:svg="http://www.w3.org/2000/svg">
  <defs
     id="defs1">
    <style
       id="style1">
      .st0 {
        fill: url(#linear-gradient2);
      }

      .st1 {
        fill: #e3272e;
      }

      .st2 {
        fill: #fff;
        stroke: #e3272e;
        stroke-miterlimit: 10;
      }

      .st3 {
        fill: url(#linear-gradient1);
      }

      .st4 {
        fill: url(#linear-gradient3);
      }

      .st5 {
        fill: url(#linear-gradient);
      }
    </style>
    <linearGradient
       id="linear-gradient"
       x1="115.6"
       y1="-13753.5"
       x2="69.900002"
       y2="-13685.8"
       gradientTransform="translate(0,13740.2)"
       gradientUnits="userSpaceOnUse">
      <stop
         offset="0"
         stop-color="#801016"
         id="stop1" />
      <stop
         offset="1"
         stop-color="#e6272e"
         id="stop2" />
    </linearGradient>
    <linearGradient
       xlink:href="#linear-gradient"
       id="linearGradient1"
       gradientUnits="userSpaceOnUse"
       gradientTransform="matrix(6.7069297,0,0,6.7069297,187.76359,92379.494)"
       x1="115.6"
       y1="-13753.5"
       x2="69.900002"
       y2="-13685.8" />
  </defs>
  <g
     id="layer1"
     transform="translate(-347.38851,-307.43453)">
    <!-- Generator: Adobe Illustrator 29.5.1, SVG Export Plug-In . SVG Version: 2.1.0 Build 141)  -->
    <path
       class="st1"
       d="M 618.34847,307.43453 H 354.76614 v 12.74316 H 535.18255 L 347.38851,675.64497 H 610.30016 V 662.90181 H 429.88375 L 617.67779,307.43453 Z"
       id="path2"
       style="fill:#b4b4bf;fill-opacity:1;stroke-width:6.70693" />
    <path
       id="path3"
       style="fill:url(#linearGradient1);stroke-width:6.70693"
       class="st5"
       d="m 1284.347,396.63603 c -12.0724,0 -22.1329,2.68293 -30.852,6.70709 -8.719,4.02414 -15.4264,10.06014 -20.1213,17.43777 -4.6949,7.37762 -6.7071,14.085 -6.7071,26.15748 0,12.07247 3.3546,21.46172 10.0616,28.83933 6.7068,7.37763 17.4367,13.41542 32.192,18.11027 7.3775,2.68278 14.756,5.36426 21.4629,7.37634 6.7071,2.01207 13.4139,4.69517 18.1086,7.37796 4.6949,2.68277 9.3898,6.03584 12.0726,10.73068 3.3535,4.69485 4.6944,11.40154 4.6944,17.43779 0,6.03623 -1.3409,11.40279 -4.6944,16.09765 -2.6828,4.69485 -7.378,8.71879 -13.4143,11.40156 -5.3655,2.68277 -11.4023,4.0236 -20.792,4.0236 -9.3896,0 -17.438,-2.01188 -24.1449,-5.36534 -6.707,-4.02416 -11.4008,-8.71806 -14.7543,-14.7543 -3.3534,-6.03623 -4.6946,-12.74363 -4.6946,-20.12126 h -23.4755 c 0,12.07248 2.0126,21.46226 8.0489,30.85196 6.0362,9.3897 13.4135,16.09566 23.4739,20.79051 9.8925,4.61645 21.73,7.2884 34.8756,7.37634 13.1237,-0.0879 24.3026,-2.75989 33.5355,-7.37634 9.3896,-4.69485 16.0972,-11.40028 20.792,-18.7779 5.3656,-8.04832 7.3764,-14.75535 7.3764,-24.81574 0,-10.0604 -2.0121,-18.77967 -6.0363,-25.4866 -3.3534,-6.70693 -9.3889,-12.07349 -16.096,-16.09765 -6.7068,-4.02417 -14.755,-8.04792 -23.474,-10.7307 -8.0484,-2.68277 -15.4267,-5.36587 -21.4629,-7.37796 -6.0363,-2.01208 -12.0721,-4.02431 -16.767,-6.70708 -4.6947,-2.68277 -8.048,-6.03548 -10.7307,-9.38895 -2.0121,-4.02415 -3.3543,-8.04899 -3.3543,-14.75592 0,-6.70693 1.3425,-12.07187 4.0252,-16.09603 2.6828,-4.69485 6.7069,-8.04775 12.0724,-10.05983 5.3656,-2.68277 11.4018,-3.35434 18.1087,-3.35434 8.0483,0 14.7557,1.34099 20.1213,4.69447 5.3655,3.35346 9.3896,7.37759 12.0723,12.07243 2.6828,4.69485 4.0236,9.39037 4.0236,14.75591 h 23.4741 c 0,-10.0604 -2.6831,-18.77985 -7.378,-26.15747 -5.3656,-7.37762 -12.0714,-14.0845 -20.7904,-18.10864 -8.7191,-4.69486 -18.7795,-6.70709 -30.852,-6.70709 z m 1.3401,190.47543 c -0.2229,0.001 -0.4453,0.002 -0.6693,0.002 h 1.3402 c -0.224,0 -0.4476,-1.2e-4 -0.6709,-0.002 z M 651.88278,399.31951 v 184.44083 h 22.13388 V 436.20767 l 97.92119,147.55267 H 794.0701 V 399.31951 H 771.93785 V 546.87217 L 674.01666,399.31951 Z m 180.41722,0 v 184.44083 h 114.01728 v -18.10865 h -91.88502 v -65.72751 h 83.8362 v -18.11026 h -83.8362 v -64.38577 h 91.88502 v -18.10864 z m 134.1385,0 50.3023,184.44083 h 24.1449 l 44.9354,-152.24714 44.2661,152.24714 h 25.4866 l 51.6425,-184.44083 h -23.474 l -40.2409,158.28336 -44.2662,-158.28336 h -24.8157 L 1029.4825,556.932 989.91246,399.31951 Z" />
  </g>
</svg>
